<svg width="151" height="29" viewBox="0 0 151 29" fill="none" xmlns="http://www.w3.org/2000/svg">
<g clip-path="url(#clip0_9_48)">
<path d="M15.038 0C17.901 2.76799 20.7492 5.52178 23.6122 8.28977C24.3353 8.98532 24.3353 8.98532 23.5827 9.69506C22.8596 10.3906 22.1069 11.0861 21.3986 11.8101C21.0296 12.1933 20.764 12.1791 20.3803 11.8101C18.8307 10.2912 17.2664 8.78659 15.7021 7.29613C15.0085 6.62898 15.0085 6.62898 14.2854 7.32452C12.7506 8.80078 11.1863 10.277 9.66624 11.7817C9.26779 12.1791 9.00215 12.1933 8.58894 11.7817C7.82154 10.9868 7.02463 10.2203 6.1982 9.48213C5.72596 9.07049 5.79975 8.80078 6.22772 8.40333C8.97264 5.79148 11.688 3.16544 14.4034 0.539403C14.5805 0.369065 14.7281 0.184533 14.8904 0.0141948C14.9347 0 14.9937 0 15.038 0Z" fill="#BBAFAF"/>
<path d="M0 14.3367C0.92973 13.4709 1.87422 12.605 2.78919 11.7107C3.17289 11.3416 3.43853 11.3274 3.82222 11.7107C4.63389 12.534 5.47508 13.3289 6.31626 14.1238C6.64093 14.4361 6.67045 14.6916 6.33102 15.0039C5.44556 15.8272 4.58962 16.6647 3.73368 17.5164C3.42377 17.8287 3.2024 17.8145 2.89249 17.5022C1.94801 16.5795 0.974003 15.6711 0.0147576 14.7626C0 14.6206 0 14.4787 0 14.3367Z" fill="#BBAFAF"/>
<path d="M46.2504 14.4361C46.6046 14.6349 46.8555 14.7768 47.1063 14.9046C48.6116 15.7137 49.1872 16.9912 49.0691 18.5952C48.9363 20.2418 48.0361 21.3632 46.457 21.9878C45.4387 22.3852 44.3762 22.5556 43.2841 22.5698C40.9229 22.5982 38.5617 22.5556 36.2004 22.5982C35.5364 22.6123 35.3593 22.3568 35.3593 21.7607C35.374 17.1473 35.374 12.534 35.3593 7.92072C35.3593 7.33873 35.5216 7.06903 36.1857 7.06903C38.6207 7.09742 41.0557 7.06903 43.476 7.09742C44.7008 7.11162 45.8667 7.40971 46.7964 8.23301C48.7002 9.8938 48.6116 12.534 46.6046 14.1097C46.5308 14.1806 46.4275 14.28 46.2504 14.4361ZM41.705 16.1821C40.8491 16.1821 40.185 16.1821 39.5209 16.1821C39.1372 16.1821 38.9159 16.3099 38.9159 16.7073C38.9159 17.488 38.9159 18.2687 38.9159 19.0495C38.9159 19.3617 39.0782 19.5321 39.4029 19.5321C40.9672 19.5463 42.5462 19.603 44.1105 19.3759C45.0403 19.234 45.4978 18.6946 45.5273 17.8997C45.5568 17.1048 45.055 16.537 44.1548 16.2957C43.2841 16.0827 42.3987 16.2389 41.705 16.1821ZM41.1147 13.3147C41.8674 13.3289 42.8266 13.3431 43.7416 12.9883C44.3319 12.7612 44.6271 12.3211 44.6418 11.7249C44.6713 11.1004 44.3909 10.6177 43.8006 10.348C43.4022 10.1493 42.9594 10.0783 42.5167 10.0783C41.7788 10.0783 41.0409 10.0783 40.3031 10.0783C38.7978 10.0783 38.9159 9.96477 38.9159 11.4126C38.9159 13.3147 38.9159 13.3147 41.1147 13.3147Z" fill="#BBAFAF"/>
<path d="M72.9764 16.3382C73.1683 16.0118 73.1093 15.7421 73.1093 15.5007C73.1093 13.045 73.1093 10.5751 73.1093 8.11945C73.1093 7.08323 73.1093 7.08323 74.2308 7.08323C74.8211 7.08323 75.4114 7.09742 76.0018 7.08323C76.474 7.06903 76.6806 7.26776 76.6658 7.72199C76.6511 8.19042 76.6658 8.67304 76.6658 9.14147C76.6658 13.3006 76.6658 17.4738 76.6658 21.6329C76.6658 22.5698 76.6511 22.584 75.6771 22.5982C73.611 22.6123 73.611 22.6123 72.3714 21.0367C70.4676 18.6236 68.5639 16.2105 66.6602 13.8116C66.4683 13.5703 66.2765 13.3431 66.0551 13.0876C65.8042 13.3715 65.8928 13.6412 65.8928 13.8825C65.878 16.4802 65.8633 19.092 65.9075 21.6897C65.9223 22.4136 65.6714 22.6833 64.9335 22.6123C64.4465 22.5698 63.9448 22.5982 63.4578 22.5982C62.3509 22.5982 62.3509 22.5982 62.3509 21.5477C62.3509 17.6158 62.3509 13.698 62.3509 9.76604C62.3509 9.12728 62.3805 8.48851 62.3509 7.84974C62.3214 7.25356 62.5871 7.08323 63.1774 7.08323C65.6124 7.05484 65.6124 7.04064 67.0881 8.91436C68.9033 11.2139 70.7185 13.5135 72.519 15.813C72.6518 15.9408 72.7846 16.1111 72.9764 16.3382Z" fill="#BBAFAF"/>
<path d="M104.705 12.9457C104.705 15.813 104.705 18.6094 104.705 21.3916C104.705 22.5556 104.705 22.5556 103.495 22.5698C103.126 22.5698 102.757 22.5698 102.388 22.5698C101.149 22.5698 101.149 22.5698 101.149 21.4058C101.149 18.4107 101.149 15.4014 101.149 12.4063C101.149 10.9442 101.178 9.46794 101.134 8.00588C101.119 7.31033 101.341 7.1258 102.078 7.04063C103.835 6.82771 104.956 7.43808 105.96 8.85756C107.583 11.1855 109.457 13.3573 111.228 15.6001C111.391 15.7988 111.509 16.0401 111.759 16.1679C111.996 15.9266 111.892 15.6569 111.892 15.4014C111.907 12.9173 111.922 10.4332 111.892 7.9491C111.878 7.26775 112.114 6.99804 112.822 7.05482C113.457 7.09741 114.091 7.08321 114.741 7.06902C115.228 7.05482 115.464 7.22516 115.464 7.72198C115.449 12.4489 115.449 17.1757 115.464 21.9026C115.464 22.3994 115.257 22.5981 114.755 22.5698C114.711 22.5698 114.652 22.5698 114.608 22.5698C112.497 22.6123 112.497 22.6123 111.228 21.0083C109.251 18.51 107.273 15.9976 105.296 13.4993C105.163 13.3147 105.06 13.0876 104.705 12.9457Z" fill="#BBAFAF"/>
<path d="M138.869 14.7768C138.869 12.4772 138.884 10.1919 138.854 7.8923C138.854 7.29612 139.032 7.05481 139.696 7.05481C143.178 7.0832 146.676 7.0832 150.159 7.05481C150.823 7.05481 150.985 7.29612 151 7.8923C151.015 10.0925 151.03 10.0925 148.727 10.0925C146.883 10.0925 145.038 10.1067 143.208 10.0783C142.647 10.0783 142.396 10.2486 142.426 10.8164C142.455 11.3416 142.47 11.8527 142.426 12.3779C142.382 12.9882 142.618 13.2154 143.267 13.2012C145.2 13.1728 147.148 13.2154 149.082 13.1728C149.746 13.1586 149.982 13.3715 149.982 14.0245C149.982 16.2956 149.996 16.2956 147.635 16.2956C146.16 16.2956 144.684 16.3098 143.208 16.2956C142.647 16.2814 142.396 16.4802 142.426 17.0338C142.455 17.5732 142.455 18.1268 142.426 18.6662C142.382 19.2623 142.647 19.4469 143.237 19.4469C145.466 19.4185 147.709 19.4327 149.937 19.4327C150.985 19.4327 150.985 19.4327 150.985 20.4689C150.985 20.9657 150.97 21.4625 150.985 21.9594C151 22.3852 150.793 22.5555 150.365 22.5555C146.75 22.5555 143.149 22.5413 139.533 22.5555C138.928 22.5555 138.869 22.2433 138.869 21.789C138.884 19.4611 138.869 17.1189 138.869 14.7768Z" fill="#BBAFAF"/>
<path d="M95.5261 22.5698C93.3862 22.5272 93.8732 22.8537 93.0173 20.9374C91.9843 18.6236 92.7517 19.1062 90.1248 19.0494C88.7966 19.0211 87.4684 19.0636 86.1402 19.0353C85.6828 19.0353 85.4171 19.1914 85.2548 19.603C84.9449 20.398 84.5759 21.1787 84.266 21.9736C84.1037 22.3852 83.8528 22.5698 83.3806 22.5556C82.6722 22.5272 81.9491 22.5556 81.2407 22.5556C80.4733 22.5414 80.3995 22.4562 80.6947 21.7749C81.6687 19.5463 82.6574 17.3319 83.6315 15.1175C84.7383 12.6192 85.8598 10.1209 86.9372 7.60843C87.1438 7.12581 87.4242 6.92708 87.9702 6.92708C90.5085 6.89869 90.5085 6.8845 91.4973 9.12728C93.3567 13.3431 95.2309 17.559 97.0904 21.789C97.4151 22.5272 97.3855 22.5698 96.5296 22.5698C96.2197 22.5698 95.8803 22.5698 95.5261 22.5698ZM88.9442 11.3133C88.649 11.6681 87.0405 15.2878 86.9667 15.6285C86.8781 15.9976 87.1142 16.026 87.3799 16.026C88.1325 16.026 88.8999 16.026 89.6526 16.026C91.1431 16.0401 90.966 16.0685 90.4642 14.8478C89.9772 13.6838 89.4607 12.5198 88.9442 11.3133Z" fill="#BBAFAF"/>
<path d="M128.008 6.78512C130.457 6.79932 132.346 7.28194 133.955 8.55948C134.678 9.12727 134.678 9.15566 134.088 9.82281C133.689 10.2629 133.247 10.6887 132.892 11.1713C132.538 11.6397 132.258 11.6114 131.815 11.2707C130.546 10.277 129.129 9.73765 127.447 10.0499C125.41 10.4332 123.861 12.0798 123.713 14.0955C123.654 14.8762 123.654 15.6569 123.92 16.4092C125.012 19.6314 128.686 20.6393 131.623 18.4958C132.612 17.7719 132.435 17.7435 133.365 18.6378C133.675 18.9359 133.97 19.2624 134.309 19.5321C134.722 19.8727 134.708 20.1424 134.309 20.5115C131.845 22.7401 128.952 23.3363 125.779 22.4704C122.68 21.6329 120.762 19.5605 120.112 16.5228C119.005 11.2849 122.946 6.64318 128.008 6.78512Z" fill="#BBAFAF"/>
<path d="M9.04642 17.0054C9.32682 17.0338 9.45964 17.2325 9.60721 17.3744C11.1863 18.8933 12.7949 20.3837 14.3297 21.9594C14.8757 22.513 15.1561 22.4278 15.6578 21.931C17.1926 20.3979 18.7865 18.9217 20.3212 17.4028C20.7049 17.0196 20.9706 16.9344 21.3838 17.3744C22.1807 18.2119 23.0366 18.9926 23.8778 19.7876C24.2173 20.0998 24.2615 20.3128 23.9073 20.6534C21.0886 23.3505 18.2699 26.0617 15.466 28.7871C15.1266 29.1135 14.8904 29.0993 14.551 28.7729C11.7471 26.0475 8.92836 23.3505 6.10966 20.6392C5.87353 20.4121 5.66693 20.1992 5.9916 19.8727C6.92133 18.9926 7.8363 18.0984 8.75127 17.2183C8.85457 17.1047 8.95788 17.048 9.04642 17.0054Z" fill="#BBAFAF"/>
<path d="M57.053 14.8478C57.053 17.0764 57.053 19.2908 57.053 21.5193C57.053 22.5556 57.053 22.5556 55.9314 22.5698C55.3854 22.5698 54.8541 22.5414 54.3081 22.5698C53.6587 22.6123 53.4669 22.3426 53.4669 21.7323C53.4816 18.6804 53.4816 15.6285 53.4816 12.5766C53.4816 11.0152 53.4964 9.45375 53.4669 7.89232C53.4521 7.29614 53.6292 7.01224 54.3081 7.05483C54.9426 7.09741 55.592 7.09741 56.2265 7.05483C56.8906 7.01224 57.0677 7.29614 57.0677 7.89232C57.0382 10.2203 57.053 12.534 57.053 14.8478Z" fill="#BBAFAF"/>
<path d="M18.4028 14.6065C18.2847 14.7626 18.1961 14.9045 18.0781 15.0181C17.1926 15.8698 16.3072 16.7215 15.4217 17.5874C15.097 17.8996 14.8609 17.8571 14.5658 17.559C13.6951 16.6931 12.8096 15.8414 11.9094 15.0039C11.5405 14.6632 11.5995 14.4503 11.9389 14.138C12.8244 13.3147 13.6803 12.4772 14.551 11.6397C14.8019 11.3984 15.0085 11.2281 15.3332 11.5546C16.2629 12.463 17.2074 13.3573 18.1371 14.2658C18.2404 14.3368 18.2995 14.4645 18.4028 14.6065Z" fill="#BBAFAF"/>
<path d="M26.7113 17.8003C26.5785 17.7009 26.4604 17.63 26.3571 17.5448C25.4569 16.6789 24.5567 15.7988 23.6417 14.9471C23.3466 14.6632 23.3613 14.4645 23.6565 14.1806C24.5419 13.3573 25.3979 12.5198 26.2538 11.6681C26.5637 11.37 26.7998 11.3558 27.1098 11.6681C27.9805 12.534 28.8659 13.3857 29.7661 14.2232C30.017 14.4645 30.076 14.6774 29.7956 14.9471C28.8659 15.8272 27.9509 16.7215 27.036 17.6016C26.9474 17.6725 26.8441 17.7293 26.7113 17.8003Z" fill="#BBAFAF"/>
</g>
<defs>
<clipPath id="clip0_9_48">
<rect width="151" height="29" fill="white"/>
</clipPath>
</defs>
</svg>
