<svg width="1440" height="1024" viewBox="0 0 1440 1024" fill="none" xmlns="http://www.w3.org/2000/svg">
<g clip-path="url(#clip0_9_73)">
<rect width="1440" height="1024" fill="white"/>
<rect width="1440" height="1014" fill="#000311"/>
<g filter="url(#filter0_f_9_73)">
<path d="M-121.286 757.737C-237.051 889.108 -334.035 764.026 -368.056 685.064C-392.057 401.825 -434.327 -173.317 -411.398 -207.977C-388.469 -242.636 -176.279 -251.767 -73.0504 -252L1086 -207.977C1008.87 -135.537 805.255 14.0954 607.839 33.1022C361.069 56.8607 428.878 371.312 124.785 269.989C-179.308 168.665 23.4206 593.524 -121.286 757.737Z" fill="#7209B7"/>
</g>
<g filter="url(#filter1_f_9_73)">
<path d="M832.688 1081.13C872.927 1217.96 764.884 1352.13 705.832 1402.11L1127.05 1439.99L1683.09 1280.48L1440.02 151C1407.13 204.133 1352.08 343.563 1395.02 476.215C1448.69 642.029 1464.46 945.168 1237.56 860.975C1010.66 776.781 782.388 910.091 832.688 1081.13Z" fill="#3A0CA3"/>
</g>
<g opacity="0.3" filter="url(#filter2_b_9_73)">
<rect y="5" width="1440" height="1014" fill="url(#paint0_linear_9_73)"/>
</g>
<g opacity="0.3" filter="url(#filter3_d_9_73)">
<path d="M72.3195 -138C133.64 -55.8985 65.1654 37.4453 87.6497 132.152C111.156 229.583 160.894 228.221 194.62 359.719C216.082 442.843 65.5061 682.334 58.6927 767.842C50.8573 870.725 123.079 923.187 94.1225 1023.69C76.7483 1083.64 59.3742 1143.26 42 1203.22" stroke="url(#paint1_linear_9_73)" stroke-miterlimit="10"/>
<path d="M107.408 -138C148.289 -83.4928 131.596 -23.5342 122.739 38.1271C118.31 68.7874 115.925 99.7878 123.42 131.129C146.245 228.22 195.983 228.562 226.643 358.357C232.775 384.248 222.214 424.106 205.522 469.415C169.751 565.484 108.09 685.4 95.8258 751.49C94.8038 756.941 94.1224 762.051 93.7817 766.82C88.331 850.966 135.003 902.066 136.365 972.926C136.706 988.596 134.662 1005.29 129.552 1023.34C112.519 1083.3 94.8037 1143.26 77.4296 1203.22" stroke="url(#paint2_linear_9_73)" stroke-miterlimit="10"/>
<path d="M142.498 -138C183.037 -83.8335 166.685 -24.2162 158.168 37.4451C153.74 67.7648 151.355 98.7664 158.509 130.108C180.653 226.518 230.731 228.902 257.985 356.994C263.435 382.885 252.534 422.743 235.501 467.712C198.708 564.121 140.794 683.356 129.893 750.468C128.871 755.919 128.19 761.029 128.19 765.798C124.101 849.603 169.751 901.385 171.114 972.244C171.455 987.915 169.751 1004.61 164.641 1022.66C147.948 1082.96 130.233 1142.92 112.519 1202.88" stroke="url(#paint3_linear_9_73)" stroke-miterlimit="10"/>
<path d="M177.587 -138C218.126 -83.8335 202.115 -24.5567 193.598 36.7639C189.169 67.0836 187.125 97.7442 193.939 129.086C215.742 224.814 265.48 229.243 290.008 355.632C295.118 381.863 283.194 421.381 265.82 466.008C228.006 563.099 173.839 681.312 164.3 749.446C163.619 754.896 162.938 760.006 162.597 764.776C159.531 847.899 204.159 900.363 205.862 971.903C206.203 987.574 204.499 1004.27 199.389 1022.32C183.037 1082.62 164.982 1142.58 147.608 1203.22" stroke="url(#paint4_linear_9_73)" stroke-miterlimit="10"/>
<path d="M213.016 -138C253.215 -84.1741 237.885 -24.8972 229.028 36.0828C224.94 66.0617 222.555 97.0627 229.368 128.064C250.49 223.111 300.228 229.583 321.69 354.268C326.119 380.841 313.855 420.018 296.14 464.305C257.303 561.737 206.884 679.268 198.708 748.424C198.027 753.875 197.345 758.985 197.345 763.755C195.642 846.537 239.248 899.682 240.951 971.222C241.292 987.234 239.589 1003.93 234.819 1021.98C218.808 1082.62 200.752 1142.58 183.037 1203.22" stroke="url(#paint5_linear_9_73)" stroke-miterlimit="10"/>
<path d="M248.105 -138C287.964 -84.5148 272.974 -25.2377 264.457 35.4016C260.369 65.3806 258.325 96.0405 264.798 127.042C285.238 221.407 334.635 229.924 353.372 352.906C357.46 379.819 344.174 418.655 326.119 462.602C286.26 560.374 239.589 677.224 232.775 747.402C232.094 752.853 231.753 757.963 231.753 762.732C231.072 845.175 273.656 899 275.7 970.541C276.04 986.553 274.337 1003.25 269.568 1021.3C253.897 1082.28 235.5 1142.24 217.786 1202.88" stroke="url(#paint6_linear_9_73)" stroke-miterlimit="10"/>
<path d="M283.194 -138C323.053 -84.8555 308.404 -25.9189 299.887 34.7204C295.799 64.6994 293.755 95.0184 300.228 126.019C320.327 219.704 369.384 230.606 385.055 351.544C388.461 378.457 374.494 417.292 356.438 460.898C315.558 559.011 272.634 675.18 267.183 746.38C266.842 751.831 266.501 756.941 266.501 761.71C266.842 843.812 308.745 898.319 310.789 969.86C311.129 985.871 309.426 1002.9 304.997 1020.96C289.667 1081.94 270.93 1141.9 253.215 1203.22" stroke="url(#paint7_linear_9_73)" stroke-miterlimit="10"/>
<path d="M318.283 -138C357.801 -84.8555 343.834 -26.2602 335.317 34.0384C331.229 63.6767 329.185 94.3377 335.657 124.998C354.735 218.001 403.792 230.946 416.737 350.181C419.803 377.434 405.154 415.93 386.417 459.195C344.515 557.649 304.997 672.795 300.909 745.699C300.569 751.15 300.228 756.26 300.228 761.029C301.931 842.79 342.812 897.979 344.856 969.86C345.196 986.212 343.834 1002.91 339.064 1020.96C323.734 1082.28 305.338 1142.24 287.623 1203.56" stroke="url(#paint8_linear_9_73)" stroke-miterlimit="10"/>
<path d="M353.372 -138C392.89 -85.1961 378.923 -26.6007 370.747 33.3572C366.659 62.9955 364.955 93.3155 371.087 123.976C389.824 216.297 438.199 231.628 448.419 348.818C450.804 376.412 435.474 414.567 416.737 457.492C373.813 556.286 338.042 670.751 335.317 744.677C334.976 750.127 334.976 755.237 334.976 760.007C337.702 841.086 377.56 897.297 379.945 969.178C380.626 985.53 378.923 1002.22 374.494 1020.28C359.504 1081.6 340.768 1141.9 323.053 1203.22" stroke="url(#paint9_linear_9_73)" stroke-miterlimit="10"/>
<path d="M388.802 -138C427.979 -85.5368 414.693 -27.2819 406.517 32.6761C402.429 61.9737 400.726 92.2933 406.858 122.954C424.913 214.594 472.948 232.309 480.442 347.115C482.146 375.05 466.134 412.864 447.397 455.448C403.11 554.924 371.428 668.367 370.065 743.314C370.065 748.765 369.725 753.875 370.065 758.644C373.813 839.383 412.99 896.275 415.374 968.157C416.056 984.509 414.352 1001.54 410.264 1019.6C395.616 1081.26 376.879 1141.56 358.823 1202.88" stroke="url(#paint10_linear_9_73)" stroke-miterlimit="10"/>
<path d="M423.891 -138C462.728 -85.8775 449.782 -27.6224 441.947 31.9949C438.199 61.2925 436.496 91.2712 442.287 121.931C459.662 212.89 507.015 232.649 512.125 345.752C513.487 374.027 496.454 411.502 477.376 453.745C432.067 553.561 403.792 665.982 404.132 742.292C404.132 747.743 404.132 752.853 404.473 757.622C409.242 838.02 447.397 895.253 450.123 967.475C450.804 983.827 449.101 1000.86 445.013 1018.92C430.705 1080.58 411.627 1140.88 393.571 1202.88" stroke="url(#paint11_linear_9_73)" stroke-miterlimit="10"/>
<path d="M458.98 -138C497.817 -86.2181 485.212 -27.9629 477.376 31.3137C473.629 60.6114 471.926 90.5897 477.717 120.909C494.41 211.187 541.082 233.331 543.807 344.389C544.488 373.006 527.114 410.139 507.696 452.041C461.365 552.198 436.496 663.938 438.54 741.27C438.54 746.721 438.54 751.831 438.881 756.6C444.672 836.658 482.146 894.572 484.871 967.134C485.553 983.827 484.19 1000.86 480.102 1018.58C466.134 1080.58 447.057 1140.88 429.001 1202.88" stroke="url(#paint12_linear_9_73)" stroke-miterlimit="10"/>
<path d="M494.069 -138C532.565 -86.2181 520.641 -28.3042 512.806 30.6317C509.059 59.5887 507.355 89.5683 512.806 119.888C529.158 209.825 574.808 234.353 575.149 343.027C575.149 371.984 557.093 408.776 537.334 450.338C489.981 550.836 468.86 661.894 472.266 740.248C472.607 745.698 472.607 750.809 472.948 755.578C479.761 834.954 516.553 893.89 519.279 966.453C519.96 983.146 518.597 1000.18 514.509 1018.23C500.883 1080.58 481.464 1140.88 463.409 1202.88" stroke="url(#paint13_linear_9_73)" stroke-miterlimit="10"/>
<path d="M529.158 -138C567.654 -86.5588 555.731 -28.9854 548.236 29.9505C544.488 58.9075 543.126 88.5461 548.236 118.866C563.907 208.121 608.534 235.034 606.831 341.664C606.49 370.961 587.413 407.754 567.654 448.635C518.938 549.473 501.564 659.509 506.674 739.226C507.015 744.676 507.355 749.786 507.696 754.556C515.872 833.591 551.302 893.208 554.368 965.771C555.049 982.464 553.687 999.498 549.939 1017.55C536.653 1079.9 516.894 1140.19 498.839 1202.88" stroke="url(#paint14_linear_9_73)" stroke-miterlimit="10"/>
<path d="M564.588 -138C602.743 -86.8995 591.501 -29.3259 584.006 29.2694C580.259 57.8857 578.896 87.8646 584.006 117.844C598.996 206.418 642.942 235.716 638.854 340.301C637.832 369.94 618.073 406.392 597.973 446.931C548.236 548.11 534.268 657.465 541.082 738.204C541.422 743.655 541.763 748.765 542.444 753.534C551.642 832.229 586.391 892.527 589.457 965.09C590.138 981.783 588.775 999.157 585.028 1017.21C572.083 1079.9 552.324 1140.19 533.927 1202.88" stroke="url(#paint15_linear_9_73)" stroke-miterlimit="10"/>
<path d="M599.677 -138C637.491 -87.2402 626.93 -29.6664 619.436 28.5882C615.688 57.2045 614.666 86.8425 619.436 116.821C634.085 204.714 676.668 236.396 670.536 338.938C668.833 368.917 648.733 405.029 628.293 445.228C577.533 547.088 566.972 655.081 575.489 737.182C576.171 742.633 576.511 747.743 576.852 752.512C587.072 830.866 620.798 891.846 624.205 964.75C624.886 981.783 623.524 998.816 620.117 1016.87C607.512 1079.56 587.413 1140.19 569.357 1202.88" stroke="url(#paint16_linear_9_73)" stroke-miterlimit="10"/>
<path d="M634.766 -138C672.58 -87.5808 662.02 -30.3476 654.866 27.907C651.459 56.5233 650.096 85.8203 654.866 115.799C668.833 203.011 710.395 237.078 702.218 337.576C699.834 367.896 679.053 403.666 658.613 443.865C606.49 546.066 600.017 653.377 609.897 736.841C610.578 742.292 610.919 747.402 611.6 752.171C622.842 830.185 655.887 891.506 659.294 964.75C659.975 981.783 658.954 999.157 655.206 1016.87C642.942 1079.9 622.842 1140.54 604.446 1203.56" stroke="url(#paint17_linear_9_73)" stroke-miterlimit="10"/>
<path d="M669.855 -138C707.329 -87.5808 697.449 -30.6889 690.295 27.225C686.888 55.5006 685.526 84.7989 690.295 114.778C703.581 201.308 743.78 237.76 734.242 336.213C731.176 366.874 709.714 402.303 688.933 442.161C635.788 544.703 632.722 651.333 644.305 735.819C644.986 741.27 645.668 746.38 646.349 751.49C658.613 828.822 690.977 891.165 694.383 964.409C695.065 981.442 694.043 998.816 690.636 1016.87C678.713 1079.9 658.272 1140.54 639.876 1203.9" stroke="url(#paint18_linear_9_73)" stroke-miterlimit="10"/>
<path d="M704.944 -138C742.418 -87.9215 732.879 -31.0294 725.725 26.5439C722.318 54.8195 721.296 84.1174 725.725 113.756C738.67 199.605 777.507 238.441 765.924 334.85C762.177 365.851 740.033 400.94 719.252 440.458C665.085 543.34 665.086 648.949 678.713 734.798C679.394 740.248 680.075 745.358 681.097 750.468C694.383 827.459 725.725 890.484 729.472 963.728C730.494 980.761 729.132 998.135 725.725 1016.19C714.142 1079.56 693.702 1140.19 674.965 1203.56" stroke="url(#paint19_linear_9_73)" stroke-miterlimit="10"/>
<path d="M740.374 -138C777.507 -88.2622 768.309 -31.3699 761.495 25.8627C758.088 53.7976 757.066 83.0952 761.495 112.734C773.759 197.901 811.233 239.463 797.947 333.147C793.518 364.829 770.693 399.237 749.572 438.415C694.042 541.638 697.79 646.563 713.12 733.434C714.142 738.885 714.823 743.995 715.505 749.106C729.813 825.756 760.473 889.462 764.221 963.047C765.243 980.421 763.88 997.795 760.814 1015.85C749.231 1079.56 728.791 1140.19 710.395 1203.9" stroke="url(#paint20_linear_9_73)" stroke-miterlimit="10"/>
<path d="M775.463 -138C812.255 -88.6028 803.738 -32.0511 796.925 25.1815C793.518 53.1165 792.837 82.0731 796.925 111.711C808.508 196.198 844.619 240.144 829.629 331.785C824.519 363.808 801.013 397.875 779.892 436.711C723.34 540.275 730.494 644.519 747.528 732.412C748.55 737.863 749.231 742.973 750.253 748.083C765.243 824.394 795.562 888.78 799.31 962.365C800.332 979.739 799.31 997.113 795.903 1015.17C784.661 1078.87 763.88 1139.51 745.484 1203.56" stroke="url(#paint21_linear_9_73)" stroke-miterlimit="10"/>
<path d="M810.551 -138C847.344 -88.9435 839.168 -32.3916 832.354 24.5003C828.948 52.0946 828.266 81.3916 832.354 110.689C843.597 194.494 878.004 240.825 861.311 330.421C855.179 362.785 831.332 396.512 810.211 435.008C752.297 538.912 763.198 642.135 781.935 731.391C782.957 736.842 783.979 741.951 785.001 747.061C801.013 822.69 830.31 888.099 834.398 961.683C835.42 979.058 834.398 996.772 831.332 1014.49C820.431 1078.53 799.65 1139.17 780.913 1203.22" stroke="url(#paint22_linear_9_73)" stroke-miterlimit="10"/>
<path d="M845.641 -138C882.093 -88.9435 874.257 -32.7329 867.785 23.8183C864.719 51.4126 864.037 80.3702 867.444 109.668C878.004 192.791 911.049 241.507 892.653 329.059C885.84 361.763 861.652 395.149 839.849 433.304C780.913 537.55 794.881 640.091 815.662 730.369C817.025 735.819 817.706 740.929 819.069 746.039C836.102 821.327 864.718 887.077 868.806 961.343C869.828 979.058 868.807 996.432 866.081 1014.49C855.52 1078.53 834.399 1139.51 815.662 1203.9" stroke="url(#paint23_linear_9_73)" stroke-miterlimit="10"/>
<path d="M881.07 -138C917.522 -89.2842 910.028 -33.4141 903.555 23.1372C900.489 50.7314 899.807 79.3481 903.214 108.646C913.093 191.088 944.435 242.189 924.676 327.697C917.181 360.742 892.312 393.787 870.51 431.601C810.211 536.187 827.926 638.047 850.41 729.347C851.773 734.457 852.795 739.908 854.158 745.018C872.213 819.965 899.807 886.395 904.236 960.661C905.258 978.376 904.236 996.091 901.51 1013.81C891.29 1078.19 870.169 1139.17 851.432 1203.56" stroke="url(#paint24_linear_9_73)" stroke-miterlimit="10"/>
<path d="M916.159 -138C952.27 -89.6248 945.116 -33.7546 938.984 22.456C935.918 49.7096 935.237 78.3259 938.644 107.624C948.182 189.384 977.48 242.869 956.359 326.334C947.842 359.719 922.632 392.424 900.489 429.898C838.827 534.824 859.949 636.003 884.477 728.324C885.84 733.434 886.862 738.885 888.225 743.996C907.302 818.602 934.215 885.714 938.644 959.98C939.666 977.695 938.984 995.41 936.259 1013.47C926.38 1078.19 904.917 1138.83 886.18 1203.56" stroke="url(#paint25_linear_9_73)" stroke-miterlimit="10"/>
<path d="M951.248 -138C987.019 -89.9655 980.546 -34.0951 974.414 21.7748C971.348 49.0284 971.007 77.6444 974.073 106.601C982.931 188.021 1010.87 243.551 988.041 324.971C978.843 358.698 952.952 391.061 930.808 428.194C868.125 533.461 892.653 633.618 918.544 727.643C919.907 732.753 921.269 738.204 922.632 743.314C942.732 817.58 968.963 885.374 973.392 959.64C974.414 977.355 973.732 995.069 971.007 1013.12C961.468 1077.85 940.006 1138.83 920.929 1203.9" stroke="url(#paint26_linear_9_73)" stroke-miterlimit="10"/>
<path d="M986.337 -138C1022.11 -90.3062 1015.98 -34.4356 1009.84 21.0936C1006.78 48.0066 1006.44 76.6222 1009.5 105.579C1017.68 186.318 1043.91 243.891 1019.72 323.608C1009.5 357.334 983.271 389.699 960.787 426.491C896.741 532.099 924.676 631.574 952.611 726.621C954.314 731.731 955.677 737.182 957.04 742.292C977.821 816.218 1003.37 884.692 1008.14 959.299C1009.16 977.354 1008.48 995.069 1006.1 1012.78C996.898 1077.85 975.095 1138.83 956.017 1203.9" stroke="url(#paint27_linear_9_73)" stroke-miterlimit="10"/>
<path d="M1021.43 -138C1056.86 -90.3062 1051.06 -35.1176 1045.27 20.4116C1042.21 47.3246 1042.21 75.6008 1044.93 104.558C1052.77 184.615 1076.96 244.573 1051.41 322.246C1040.16 356.313 1013.59 388.336 991.107 424.788C926.039 530.736 957.04 629.53 987.019 725.599C988.722 730.709 990.085 736.16 991.788 741.27C1013.59 814.514 1038.46 884.011 1043.23 958.618C1044.25 976.673 1043.57 994.388 1041.19 1012.44C1032.33 1077.51 1010.18 1138.49 991.447 1203.9" stroke="url(#paint28_linear_9_73)" stroke-miterlimit="10"/>
<path d="M1056.86 -138C1092.29 -90.6469 1086.84 -35.4581 1081.04 19.7304C1078.32 46.6434 1077.98 74.5787 1080.7 103.536C1087.86 182.912 1110 245.255 1083.43 320.883C1071.16 355.291 1044.25 386.633 1021.77 423.084C955.336 529.373 990.085 627.486 1021.77 724.577C1023.47 729.687 1025.17 735.138 1026.54 740.248C1049.36 813.151 1073.21 882.989 1078.32 957.936C1079.68 975.992 1079 994.047 1076.61 1011.76C1068.1 1077.17 1045.95 1138.15 1026.88 1203.9" stroke="url(#paint29_linear_9_73)" stroke-miterlimit="10"/>
<path d="M1091.95 -138C1127.03 -90.9875 1122.27 -35.7986 1116.47 19.0493C1113.75 45.6215 1113.75 73.8972 1116.13 102.513C1122.95 181.208 1143.05 245.595 1115.11 319.18C1102.17 353.928 1074.57 384.929 1051.75 421.04C983.953 527.329 1022.11 625.101 1055.83 723.214C1057.54 728.324 1059.24 733.775 1060.94 738.885C1084.79 811.448 1107.96 881.967 1113.07 956.914C1114.43 974.97 1113.75 993.026 1111.36 1010.74C1103.53 1076.49 1080.7 1137.47 1061.63 1203.22" stroke="url(#paint30_linear_9_73)" stroke-miterlimit="10"/>
<path d="M1127.03 -138C1161.78 -91.3282 1157.35 -36.4798 1151.9 18.3681C1149.18 44.9404 1149.18 72.875 1151.56 101.491C1157.69 179.505 1176.09 245.935 1146.79 317.817C1132.83 352.565 1104.89 383.566 1082.07 419.337C1012.91 525.966 1054.47 623.057 1090.24 722.192C1092.29 727.302 1093.99 732.753 1095.69 737.863C1120.22 810.085 1143.05 881.285 1148.16 956.573C1149.52 974.97 1148.84 992.685 1146.79 1010.74C1139.3 1076.49 1116.47 1137.81 1097.06 1203.56" stroke="url(#paint31_linear_9_73)" stroke-miterlimit="10"/>
<path d="M1162.12 -138C1196.87 -91.3282 1192.78 -36.8203 1187.33 17.6869C1184.61 43.9185 1184.61 71.8528 1186.65 100.469C1192.1 177.801 1208.8 246.276 1178.48 316.454C1163.15 351.543 1135.21 382.204 1112.04 417.633C1041.87 524.604 1086.49 621.014 1124.31 721.171C1126.35 726.281 1128.06 731.731 1130.1 736.841C1155.65 808.722 1177.45 880.604 1182.9 955.892C1184.27 974.288 1183.59 992.344 1181.54 1010.06C1174.05 1076.15 1151.22 1137.13 1132.14 1203.22" stroke="url(#paint32_linear_9_73)" stroke-miterlimit="10"/>
<path d="M1197.21 -138C1231.62 -91.6689 1228.21 -37.1616 1222.76 17.0049C1220.04 43.2365 1220.38 71.1721 1222.08 99.4478C1227.19 176.099 1241.5 246.617 1210.16 315.091C1193.81 350.521 1165.53 380.841 1142.36 415.93C1070.82 523.241 1118.86 618.97 1158.72 720.149C1160.76 725.259 1162.8 730.709 1164.51 735.819C1191.08 807.36 1212.2 879.923 1217.65 955.211C1219.02 973.607 1218.67 991.663 1216.63 1009.72C1209.48 1075.81 1186.65 1137.13 1167.23 1203.56" stroke="url(#paint33_linear_9_73)" stroke-miterlimit="10"/>
<path d="M1232.64 -138C1267.05 -92.0095 1263.64 -37.5021 1258.53 16.3237C1255.81 42.5553 1256.15 70.1499 1257.85 98.4256C1262.62 174.395 1274.89 246.958 1242.18 313.729C1224.81 349.159 1196.19 379.478 1172.68 414.227C1099.78 521.878 1151.22 617.266 1193.12 719.126C1195.17 724.236 1197.21 729.347 1199.26 734.798C1226.51 805.998 1246.95 879.242 1252.74 954.53C1254.1 973.267 1253.76 991.322 1252.06 1009.04C1245.25 1075.47 1222.08 1136.79 1202.66 1203.22" stroke="url(#paint34_linear_9_73)" stroke-miterlimit="10"/>
<path d="M1267.73 -138C1301.8 -92.3502 1299.07 -38.1833 1293.96 15.6426C1291.58 41.5335 1291.92 69.1278 1293.28 97.4034C1297.37 172.691 1307.59 247.299 1273.86 312.367C1255.47 347.796 1226.51 378.116 1203 412.523C1128.74 520.175 1183.59 615.222 1227.53 718.104C1229.58 723.214 1231.96 728.325 1234.01 733.775C1262.28 804.635 1282.04 878.219 1287.83 954.189C1289.19 972.926 1288.85 990.981 1287.15 1008.7C1280.68 1075.47 1257.17 1136.45 1237.75 1203.22" stroke="url(#paint35_linear_9_73)" stroke-miterlimit="10"/>
<path d="M1302.82 -138C1336.55 -92.6909 1334.16 -38.5238 1329.39 14.9614C1327.01 40.8523 1327.35 68.1056 1328.71 96.3812C1332.12 170.988 1340.63 247.298 1305.55 311.003C1285.79 346.774 1256.83 376.753 1233.32 410.82C1157.69 518.812 1215.95 613.178 1261.94 717.423C1264.32 722.533 1266.37 727.643 1268.75 733.094C1297.71 803.613 1317.13 877.878 1322.92 953.848C1324.28 972.585 1323.94 990.64 1322.58 1008.7C1316.45 1075.47 1292.94 1136.79 1273.52 1203.9" stroke="url(#paint36_linear_9_73)" stroke-miterlimit="10"/>
<path d="M1337.91 -138C1371.64 -92.6909 1369.59 -38.8643 1364.82 14.2802C1355.96 107.965 1387.31 224.133 1337.23 309.3C1316.45 345.07 1287.15 375.049 1263.3 408.776C1186.31 517.109 1247.97 610.794 1296.01 716.061C1330.07 790.667 1350.85 871.066 1357.33 952.826C1364.48 1042.76 1332.8 1118.39 1307.93 1203.22" stroke="url(#paint37_linear_9_73)" stroke-miterlimit="10"/>
</g>
</g>
<defs>
<filter id="filter0_f_9_73" x="-918" y="-752" width="2504" height="2067" filterUnits="userSpaceOnUse" color-interpolation-filters="sRGB">
<feFlood flood-opacity="0" result="BackgroundImageFix"/>
<feBlend mode="normal" in="SourceGraphic" in2="BackgroundImageFix" result="shape"/>
<feGaussianBlur stdDeviation="250" result="effect1_foregroundBlur_9_73"/>
</filter>
<filter id="filter1_f_9_73" x="205.832" y="-349" width="1977.26" height="2288.99" filterUnits="userSpaceOnUse" color-interpolation-filters="sRGB">
<feFlood flood-opacity="0" result="BackgroundImageFix"/>
<feBlend mode="normal" in="SourceGraphic" in2="BackgroundImageFix" result="shape"/>
<feGaussianBlur stdDeviation="250" result="effect1_foregroundBlur_9_73"/>
</filter>
<filter id="filter2_b_9_73" x="-100" y="-95" width="1640" height="1214" filterUnits="userSpaceOnUse" color-interpolation-filters="sRGB">
<feFlood flood-opacity="0" result="BackgroundImageFix"/>
<feGaussianBlur in="BackgroundImageFix" stdDeviation="50"/>
<feComposite in2="SourceAlpha" operator="in" result="effect1_backgroundBlur_9_73"/>
<feBlend mode="normal" in="SourceGraphic" in2="effect1_backgroundBlur_9_73" result="shape"/>
</filter>
<filter id="filter3_d_9_73" x="37.5198" y="-138.3" width="1334.47" height="1350.34" filterUnits="userSpaceOnUse" color-interpolation-filters="sRGB">
<feFlood flood-opacity="0" result="BackgroundImageFix"/>
<feColorMatrix in="SourceAlpha" type="matrix" values="0 0 0 0 0 0 0 0 0 0 0 0 0 0 0 0 0 0 127 0" result="hardAlpha"/>
<feOffset dy="4"/>
<feGaussianBlur stdDeviation="2"/>
<feComposite in2="hardAlpha" operator="out"/>
<feColorMatrix type="matrix" values="0 0 0 0 0 0 0 0 0 0 0 0 0 0 0 0 0 0 0.25 0"/>
<feBlend mode="normal" in2="BackgroundImageFix" result="effect1_dropShadow_9_73"/>
<feBlend mode="normal" in="SourceGraphic" in2="effect1_dropShadow_9_73" result="shape"/>
</filter>
<linearGradient id="paint0_linear_9_73" x1="0" y1="5" x2="1403" y2="998.5" gradientUnits="userSpaceOnUse">
<stop stop-color="#000311"/>
<stop offset="1" stop-color="#000311" stop-opacity="0"/>
</linearGradient>
<linearGradient id="paint1_linear_9_73" x1="40.4619" y1="532.427" x2="198.508" y2="532.427" gradientUnits="userSpaceOnUse">
<stop stop-color="white"/>
<stop offset="1"/>
</linearGradient>
<linearGradient id="paint2_linear_9_73" x1="75.6223" y1="532.427" x2="229.899" y2="532.427" gradientUnits="userSpaceOnUse">
<stop stop-color="white"/>
<stop offset="1"/>
</linearGradient>
<linearGradient id="paint3_linear_9_73" x1="110.783" y1="532.426" x2="261.337" y2="532.426" gradientUnits="userSpaceOnUse">
<stop stop-color="white"/>
<stop offset="1"/>
</linearGradient>
<linearGradient id="paint4_linear_9_73" x1="145.944" y1="532.427" x2="292.799" y2="532.427" gradientUnits="userSpaceOnUse">
<stop stop-color="white"/>
<stop offset="1"/>
</linearGradient>
<linearGradient id="paint5_linear_9_73" x1="181.104" y1="532.427" x2="324.289" y2="532.427" gradientUnits="userSpaceOnUse">
<stop stop-color="white"/>
<stop offset="1"/>
</linearGradient>
<linearGradient id="paint6_linear_9_73" x1="216.265" y1="532.426" x2="355.809" y2="532.426" gradientUnits="userSpaceOnUse">
<stop stop-color="white"/>
<stop offset="1"/>
</linearGradient>
<linearGradient id="paint7_linear_9_73" x1="251.426" y1="532.427" x2="387.358" y2="532.427" gradientUnits="userSpaceOnUse">
<stop stop-color="white"/>
<stop offset="1"/>
</linearGradient>
<linearGradient id="paint8_linear_9_73" x1="286.586" y1="532.426" x2="418.934" y2="532.426" gradientUnits="userSpaceOnUse">
<stop stop-color="white"/>
<stop offset="1"/>
</linearGradient>
<linearGradient id="paint9_linear_9_73" x1="321.747" y1="532.427" x2="450.537" y2="532.427" gradientUnits="userSpaceOnUse">
<stop stop-color="white"/>
<stop offset="1"/>
</linearGradient>
<linearGradient id="paint10_linear_9_73" x1="356.907" y1="532.426" x2="482.168" y2="532.426" gradientUnits="userSpaceOnUse">
<stop stop-color="white"/>
<stop offset="1"/>
</linearGradient>
<linearGradient id="paint11_linear_9_73" x1="392.068" y1="532.426" x2="513.826" y2="532.426" gradientUnits="userSpaceOnUse">
<stop stop-color="white"/>
<stop offset="1"/>
</linearGradient>
<linearGradient id="paint12_linear_9_73" x1="427.228" y1="532.426" x2="545.511" y2="532.426" gradientUnits="userSpaceOnUse">
<stop stop-color="white"/>
<stop offset="1"/>
</linearGradient>
<linearGradient id="paint13_linear_9_73" x1="462.389" y1="532.426" x2="577.225" y2="532.426" gradientUnits="userSpaceOnUse">
<stop stop-color="white"/>
<stop offset="1"/>
</linearGradient>
<linearGradient id="paint14_linear_9_73" x1="497.55" y1="532.426" x2="609.01" y2="532.426" gradientUnits="userSpaceOnUse">
<stop stop-color="white"/>
<stop offset="1"/>
</linearGradient>
<linearGradient id="paint15_linear_9_73" x1="532.71" y1="532.426" x2="640.939" y2="532.426" gradientUnits="userSpaceOnUse">
<stop stop-color="white"/>
<stop offset="1"/>
</linearGradient>
<linearGradient id="paint16_linear_9_73" x1="567.87" y1="532.426" x2="672.995" y2="532.426" gradientUnits="userSpaceOnUse">
<stop stop-color="white"/>
<stop offset="1"/>
</linearGradient>
<linearGradient id="paint17_linear_9_73" x1="603.031" y1="532.426" x2="705.161" y2="532.426" gradientUnits="userSpaceOnUse">
<stop stop-color="white"/>
<stop offset="1"/>
</linearGradient>
<linearGradient id="paint18_linear_9_73" x1="637.031" y1="532.426" x2="737.427" y2="532.426" gradientUnits="userSpaceOnUse">
<stop stop-color="white"/>
<stop offset="1"/>
</linearGradient>
<linearGradient id="paint19_linear_9_73" x1="669.382" y1="532.426" x2="769.781" y2="532.426" gradientUnits="userSpaceOnUse">
<stop stop-color="white"/>
<stop offset="1"/>
</linearGradient>
<linearGradient id="paint20_linear_9_73" x1="701.452" y1="532.426" x2="802.219" y2="532.426" gradientUnits="userSpaceOnUse">
<stop stop-color="white"/>
<stop offset="1"/>
</linearGradient>
<linearGradient id="paint21_linear_9_73" x1="733.27" y1="532.426" x2="834.734" y2="532.426" gradientUnits="userSpaceOnUse">
<stop stop-color="white"/>
<stop offset="1"/>
</linearGradient>
<linearGradient id="paint22_linear_9_73" x1="764.863" y1="532.427" x2="867.325" y2="532.427" gradientUnits="userSpaceOnUse">
<stop stop-color="white"/>
<stop offset="1"/>
</linearGradient>
<linearGradient id="paint23_linear_9_73" x1="796.265" y1="532.426" x2="899.991" y2="532.426" gradientUnits="userSpaceOnUse">
<stop stop-color="white"/>
<stop offset="1"/>
</linearGradient>
<linearGradient id="paint24_linear_9_73" x1="827.497" y1="532.426" x2="932.732" y2="532.426" gradientUnits="userSpaceOnUse">
<stop stop-color="white"/>
<stop offset="1"/>
</linearGradient>
<linearGradient id="paint25_linear_9_73" x1="858.584" y1="532.426" x2="965.551" y2="532.426" gradientUnits="userSpaceOnUse">
<stop stop-color="white"/>
<stop offset="1"/>
</linearGradient>
<linearGradient id="paint26_linear_9_73" x1="889.545" y1="532.426" x2="998.452" y2="532.426" gradientUnits="userSpaceOnUse">
<stop stop-color="white"/>
<stop offset="1"/>
</linearGradient>
<linearGradient id="paint27_linear_9_73" x1="920.397" y1="532.426" x2="1031.44" y2="532.426" gradientUnits="userSpaceOnUse">
<stop stop-color="white"/>
<stop offset="1"/>
</linearGradient>
<linearGradient id="paint28_linear_9_73" x1="951.154" y1="532.426" x2="1064.52" y2="532.426" gradientUnits="userSpaceOnUse">
<stop stop-color="white"/>
<stop offset="1"/>
</linearGradient>
<linearGradient id="paint29_linear_9_73" x1="981.827" y1="532.426" x2="1097.71" y2="532.426" gradientUnits="userSpaceOnUse">
<stop stop-color="white"/>
<stop offset="1"/>
</linearGradient>
<linearGradient id="paint30_linear_9_73" x1="1012.43" y1="532.427" x2="1131" y2="532.427" gradientUnits="userSpaceOnUse">
<stop stop-color="white"/>
<stop offset="1"/>
</linearGradient>
<linearGradient id="paint31_linear_9_73" x1="1042.96" y1="532.426" x2="1164.42" y2="532.426" gradientUnits="userSpaceOnUse">
<stop stop-color="white"/>
<stop offset="1"/>
</linearGradient>
<linearGradient id="paint32_linear_9_73" x1="1073.44" y1="532.427" x2="1197.97" y2="532.427" gradientUnits="userSpaceOnUse">
<stop stop-color="white"/>
<stop offset="1"/>
</linearGradient>
<linearGradient id="paint33_linear_9_73" x1="1103.87" y1="532.426" x2="1231.72" y2="532.426" gradientUnits="userSpaceOnUse">
<stop stop-color="white"/>
<stop offset="1"/>
</linearGradient>
<linearGradient id="paint34_linear_9_73" x1="1134.25" y1="532.427" x2="1265.56" y2="532.427" gradientUnits="userSpaceOnUse">
<stop stop-color="white"/>
<stop offset="1"/>
</linearGradient>
<linearGradient id="paint35_linear_9_73" x1="1164.59" y1="532.427" x2="1299.58" y2="532.427" gradientUnits="userSpaceOnUse">
<stop stop-color="white"/>
<stop offset="1"/>
</linearGradient>
<linearGradient id="paint36_linear_9_73" x1="1194.82" y1="532.426" x2="1333.92" y2="532.426" gradientUnits="userSpaceOnUse">
<stop stop-color="white"/>
<stop offset="1"/>
</linearGradient>
<linearGradient id="paint37_linear_9_73" x1="1225.16" y1="532.427" x2="1369.25" y2="532.427" gradientUnits="userSpaceOnUse">
<stop stop-color="white"/>
<stop offset="1"/>
</linearGradient>
<clipPath id="clip0_9_73">
<rect width="1440" height="1024" fill="white"/>
</clipPath>
</defs>
</svg>
