<svg width="120" height="23" viewBox="0 0 120 23" fill="none" xmlns="http://www.w3.org/2000/svg">
<g clip-path="url(#clip0_9_37)">
<path d="M8.54309 22.6798C6.08331 22.6798 3.62354 22.6532 1.16376 22.6798C0.290941 22.7065 0 22.413 0 21.5592C0.0264492 18.5975 0.0264492 15.6091 0 12.6474C0 11.7935 0.290941 11.4467 1.13732 11.4733C2.22173 11.5267 3.3326 11.5267 4.44346 11.4733C5.23694 11.4467 5.55433 11.7402 5.55433 12.5673C5.52788 13.768 5.58078 14.9687 5.55433 16.1694C5.52788 16.9432 5.87172 17.3167 6.63875 17.29C7.96121 17.2634 9.28367 17.29 10.6061 17.29C11.3203 17.29 11.6376 16.9965 11.6376 16.2494C11.6112 14.9687 11.6112 13.688 11.6376 12.4072C11.6641 11.5534 11.3467 11.2065 10.5003 11.2332C9.31012 11.2866 8.1199 11.2065 6.92969 11.2599C6.16266 11.2866 5.79237 11.0464 5.81882 10.1926C5.87172 9.04527 5.87172 7.89794 5.81882 6.72392C5.79237 5.87009 6.18911 5.68332 6.92969 5.68332C9.97135 5.71 12.9866 5.71 16.0282 5.68332C16.9275 5.68332 17.1391 6.03019 17.1391 6.85733C17.1126 11.7402 17.1126 16.5963 17.1391 21.4791C17.1391 22.3863 16.8481 22.7332 15.9224 22.7332C13.4626 22.6532 11.0029 22.6798 8.54309 22.6798Z" fill="#BBAFAF"/>
<path d="M28.9883 14.0615C28.9883 11.7135 29.0148 9.36543 28.9619 7.0174C28.9354 6.03017 29.1735 5.54989 30.2843 5.62993C32.6119 5.76334 34.9394 5.49652 37.2405 5.87007C38.9332 6.13689 40.2821 6.85731 40.864 8.53829C41.4723 10.3794 41.2079 12.0603 39.568 13.2877C38.9861 13.7146 39.039 13.9281 39.6209 14.3016C41.393 15.4223 42.0807 17.3167 41.5517 19.3179C41.0227 21.3457 39.6209 22.5464 37.3463 22.6531C34.8865 22.7599 32.4267 22.6798 29.9669 22.7065C29.0677 22.7332 28.9883 22.2262 28.9883 21.5325C29.0148 19.0244 28.9883 16.5429 28.9883 14.0615ZM34.5956 20.2251C35.389 20.2251 36.1825 20.3051 36.9495 20.1984C38.0339 20.0383 38.7745 19.4513 38.801 18.1972C38.8539 16.4095 38.5629 15.8492 37.214 15.4756C35.6271 15.022 33.9872 15.3155 32.3738 15.2622C31.8713 15.2355 31.6861 15.5557 31.6861 16.036C31.6861 16.4896 31.6861 16.9165 31.6861 17.3701C31.6861 20.2784 31.6861 20.2784 34.5956 20.2251ZM34.384 12.8074C35.0981 12.8074 35.7858 12.8608 36.4999 12.8074C37.7166 12.7007 38.272 11.9803 38.2984 10.7796C38.3513 9.15198 38.0075 8.61833 36.7115 8.29815C35.7064 8.05801 34.7014 8.05801 33.6963 8.05801C31.6861 8.05801 31.6861 8.05801 31.6861 10.0592C31.6861 12.8341 31.6861 12.8341 34.384 12.8074Z" fill="#BBAFAF"/>
<path d="M93.2334 14.2216C93.2334 11.8736 93.2863 9.52553 93.207 7.17751C93.1805 6.05686 93.4715 5.5499 94.6617 5.62994C96.8041 5.76335 98.9464 5.62994 101.115 5.81672C104.924 6.16359 105.638 8.8318 105.559 11.5C105.506 13.2344 104.818 14.7819 103.02 15.529C102.253 15.8492 102.438 16.4095 102.755 16.9432C103.602 18.4374 104.474 19.9316 105.347 21.4258C105.982 22.5464 105.929 22.5998 104.686 22.7065C103.363 22.8399 102.57 22.3863 102.015 21.1323C101.353 19.6381 100.401 18.2773 99.6606 16.8364C98.9464 15.449 97.7298 16.036 96.7247 16.0893C95.6932 16.116 96.1428 17.1033 96.1164 17.6903C96.037 19.0244 96.037 20.3585 96.1164 21.6659C96.1693 22.8132 95.4552 22.7065 94.741 22.6798C94.0533 22.6531 93.1805 22.9466 93.207 21.6659C93.2599 19.1845 93.2334 16.703 93.2334 14.2216ZM98.7084 8.27147C98.7084 8.24479 98.7084 8.24479 98.7084 8.27147C98.2323 8.24479 97.7298 8.32484 97.2537 8.21811C96.3544 8.00465 96.0635 8.32484 96.0899 9.20535C96.1428 10.2993 96.1428 11.42 96.0899 12.5139C96.0635 13.2877 96.3544 13.6613 97.1479 13.6079C98.0736 13.5545 98.9993 13.6079 99.9251 13.6079C101.962 13.5812 102.702 12.8608 102.729 10.9664C102.729 8.93853 102.094 8.32484 100.031 8.27147C99.5812 8.27147 99.158 8.27147 98.7084 8.27147Z" fill="#BBAFAF"/>
<path d="M90.086 12.6207C90.086 14.355 90.1124 16.0893 90.086 17.8237C90.0595 20.7053 88.5255 22.5464 85.7218 22.8933C84.5581 23.0534 83.3414 23.0534 82.1776 22.8933C79.2153 22.493 77.84 20.7587 77.7077 16.9965C77.5755 13.5812 77.7077 10.1659 77.6548 6.75059C77.6284 5.44316 78.5277 5.70998 79.2947 5.65662C80.1146 5.60325 80.5907 5.76335 80.5907 6.77727C80.5378 10.2459 80.5642 13.6879 80.5642 17.1566C80.5642 18.4107 80.6965 19.6647 81.966 20.1984C83.3414 20.7854 84.8226 20.8121 86.1715 20.1183C87.2294 19.5847 87.4146 18.4907 87.4146 17.3701C87.4146 13.9548 87.441 10.5394 87.4146 7.12414C87.4146 6.08353 87.6262 5.62994 88.7899 5.60325C90.0331 5.57657 90.1389 6.19026 90.1124 7.15082C90.0595 8.99188 90.086 10.8063 90.086 12.6207Z" fill="#BBAFAF"/>
<path d="M64.4567 14.1149C64.4567 11.7135 64.4831 9.33876 64.4302 6.93737C64.4038 5.95013 64.7741 5.62994 65.7263 5.62994C68.6357 5.6833 71.5186 5.6833 74.428 5.62994C75.4596 5.60326 75.5654 6.11022 75.5389 6.93737C75.5389 7.73783 75.486 8.29815 74.428 8.27147C72.365 8.19143 70.302 8.27147 68.2389 8.16474C67.4719 8.11138 67.3132 8.3782 67.3132 9.01857C67.3132 10.0325 67.3397 11.0464 67.3132 12.087C67.3132 12.7541 67.5248 12.9675 68.2654 12.9142C69.9317 12.8074 71.598 12.8875 73.2643 12.8341C74.2693 12.8074 74.428 13.3144 74.428 14.1415C74.428 14.9954 74.2429 15.4756 73.2643 15.449C71.6509 15.3956 70.011 15.5023 68.3976 15.3689C67.5248 15.2889 67.3132 15.529 67.3132 16.3295C67.3397 18.0638 67.2603 19.7982 67.3397 21.5058C67.3926 22.6531 66.7842 22.7065 65.9643 22.6798C65.1973 22.6531 64.3773 22.8666 64.4038 21.5592C64.5096 19.0777 64.4567 16.5963 64.4567 14.1149Z" fill="#BBAFAF"/>
<path d="M56.0988 5.65662C57.7122 5.65662 59.352 5.70999 60.9654 5.62994C61.9969 5.57658 62.3408 5.97681 62.3408 7.01741C62.3408 8.03133 62.0234 8.40488 61.0448 8.27147C60.9654 8.27147 60.8596 8.27147 60.7803 8.27147C57.527 8.29815 57.527 8.29815 57.527 11.5267C57.527 14.8353 57.4741 18.1705 57.5535 21.4791C57.5799 22.7332 56.9187 22.6798 56.0723 22.6798C55.1995 22.6798 54.5911 22.6531 54.6176 21.4524C54.6969 17.5035 54.6176 13.5812 54.6705 9.63226C54.6705 8.61834 54.406 8.13806 53.348 8.24479C52.6868 8.32484 52.0256 8.27147 51.3643 8.24479C49.9625 8.24479 49.4865 7.49769 49.9096 6.1369C50.0948 5.52321 50.5709 5.62994 50.9941 5.62994C52.6868 5.65662 54.406 5.65662 56.0988 5.65662Z" fill="#BBAFAF"/>
<path d="M107.675 5.60326C108.786 5.38981 109.315 6.0035 109.817 6.93737C110.69 8.61835 111.721 10.2193 112.621 11.9002C113.07 12.7541 113.414 12.5139 113.784 11.8736C114.816 10.0859 115.847 8.27148 116.905 6.48377C117.329 5.79004 119.048 5.30976 119.709 5.70999C120.291 6.05686 119.788 6.37705 119.603 6.67055C118.122 9.17867 116.667 11.7135 115.16 14.1949C114.71 14.9153 114.551 15.6357 114.578 16.4629C114.604 18.1439 114.525 19.8248 114.604 21.5058C114.657 22.7065 113.943 22.7065 113.07 22.7332C112.25 22.7332 111.536 22.7065 111.695 21.5592C111.695 21.5058 111.695 21.4791 111.695 21.4258C112.409 17.0232 110.849 13.3144 108.415 9.81904C107.833 8.9919 107.357 8.0847 106.855 7.20419C106.617 6.77728 105.982 6.32368 106.299 5.8434C106.484 5.5499 107.199 5.65663 107.675 5.60326Z" fill="#BBAFAF"/>
<path d="M47.5292 14.1682C47.5292 16.5696 47.5028 18.9443 47.5556 21.3457C47.5821 22.3596 47.2912 22.7599 46.2332 22.7332C45.281 22.7065 44.8049 22.5464 44.8314 21.4258C44.8843 16.5963 44.8843 11.7935 44.8314 6.96405C44.8314 5.8434 45.281 5.68331 46.2332 5.65663C47.2912 5.62995 47.5821 6.0035 47.5556 7.0441C47.5028 9.39213 47.5292 11.7668 47.5292 14.1682Z" fill="#BBAFAF"/>
<path d="M2.77737 5.41648C-0.449432 5.36312 0.0266537 5.81672 0.0266537 2.58818C0.0266537 -0.346858 -0.370084 1.01887e-05 2.61867 1.01887e-05C6.00417 1.01887e-05 5.52809 -0.480268 5.52809 2.93505C5.55454 5.76335 5.84548 5.36312 2.77737 5.41648Z" fill="#BBAFAF"/>
</g>
<defs>
<clipPath id="clip0_9_37">
<rect width="120" height="23" fill="white"/>
</clipPath>
</defs>
</svg>
