<svg width="211" height="23" viewBox="0 0 211 23" fill="none" xmlns="http://www.w3.org/2000/svg">
<g clip-path="url(#clip0_9_14)">
<path d="M18.73 12.5939C22.7792 13.9544 24.1225 15.94 23.1438 18.8449C22.3186 21.2534 20.246 22.191 17.8856 22.2646C12.3779 22.4117 6.87021 22.3197 1.34334 22.3565C0.307049 22.3565 0 21.9153 0 20.996C0.0191905 15.7194 0.0191905 10.4612 0 5.18465C0 4.1183 0.460573 3.76898 1.51605 3.78737C6.8894 3.82414 12.2628 3.73221 17.6169 3.89768C21.1864 4.00799 23.1822 6.21422 22.7216 9.02717C22.3954 11.0128 20.7834 11.8401 18.73 12.5939ZM10.4588 19.2494C11.8598 19.2494 13.2799 19.2494 14.6808 19.2494C14.8151 19.2494 14.9686 19.2494 15.103 19.231C16.6574 18.9736 18.2694 18.7346 18.3845 16.749C18.4613 15.223 17.1947 14.2118 15.0262 14.1751C12.4163 14.1199 9.82556 14.1567 7.21564 14.1567C4.4714 14.1567 4.62492 14.1751 4.43301 16.7306C4.27949 18.753 4.89359 19.5803 7.08131 19.2862C8.19436 19.1207 9.34579 19.2494 10.4588 19.2494ZM10.2861 11.1966C10.2861 11.1599 10.2861 11.1231 10.2861 11.1047C12.1092 11.1047 13.9515 11.2334 15.7554 11.0679C16.8877 10.9576 17.9623 10.3325 17.9432 8.9904C17.924 7.72182 16.9069 7.33573 15.8322 7.09672C15.5635 7.04156 15.2757 6.94964 15.007 6.94964C11.9173 6.93125 8.80846 6.91287 5.71878 6.91287C5.23902 6.91287 4.77844 6.93125 4.52897 7.5012C3.62701 9.63389 4.70168 11.1966 7.1005 11.1966C8.17517 11.1966 9.23065 11.1966 10.2861 11.1966Z" fill="#BBAFAF" fill-opacity="0.8"/>
<path d="M119.384 16.3997C119.384 12.8329 119.48 9.26617 119.346 5.71781C119.288 4.00798 119.998 3.69543 121.553 3.7322C122.992 3.76897 123.913 3.84251 123.856 5.64427C123.721 10.5715 123.76 15.4988 123.856 20.4444C123.894 22.0072 123.299 22.3013 121.783 22.3933C119.634 22.5036 118.118 21.8785 116.602 20.3709C112.725 16.4548 108.638 12.7226 104.627 8.91685C103.955 9.30294 104.262 9.89127 104.262 10.3693C104.224 13.8809 104.185 17.3925 104.262 20.9041C104.301 22.5404 103.226 22.4117 102.17 22.3197C101.192 22.2462 99.7716 22.8713 99.7716 20.9776C99.81 15.701 99.81 10.4428 99.7716 5.16625C99.7716 4.09991 100.232 3.80574 101.288 3.75059C103.917 3.6035 106.085 3.93444 108.043 6.06713C111.42 9.76258 115.22 13.1271 118.847 16.6203C119.039 16.5467 119.212 16.4732 119.384 16.3997Z" fill="#BBAFAF" fill-opacity="0.8"/>
<path d="M139.131 22.3381C136.08 22.3381 133.048 22.3013 129.997 22.3565C128.711 22.3933 128.27 21.952 128.289 20.7202C128.346 15.5723 128.346 10.4428 128.289 5.29494C128.27 4.13667 128.73 3.75058 129.901 3.76896C136.061 3.80573 142.202 3.80573 148.362 3.76896C149.686 3.75058 150.051 4.26537 150.051 5.46041C150.051 6.63707 149.533 6.968 148.4 6.968C143.871 6.93123 139.343 7.04155 134.814 6.91285C132.952 6.85769 132.799 7.70342 132.76 9.11908C132.722 10.6451 133.125 11.3437 134.89 11.215C136.925 11.0679 138.997 11.1966 141.05 11.1782C142.144 11.1782 143.142 11.0495 143.161 12.6491C143.161 14.175 142.336 14.2302 141.146 14.2118C138.959 14.175 136.752 14.2486 134.564 14.175C133.317 14.1383 132.683 14.4692 132.799 15.7378C132.856 16.3445 132.856 16.9512 132.799 17.5579C132.645 18.9368 133.355 19.2862 134.679 19.2678C139.074 19.2126 143.449 19.2494 147.844 19.2494C148.976 19.2494 150.089 19.0471 150.089 20.7937C150.089 22.5403 148.976 22.3381 147.844 22.3381C144.927 22.3381 142.029 22.3381 139.131 22.3381Z" fill="#BBAFAF" fill-opacity="0.8"/>
<path d="M154.119 3.98961C157.478 3.64029 160.183 3.30935 162.314 5.84652C163.407 7.15188 164.904 8.14468 166.152 9.32134C166.919 10.0568 167.495 10.0384 168.263 9.32134C169.625 8.03437 171.218 6.96802 172.427 5.57074C174.519 3.16227 177.11 3.73221 180.276 3.95284C177.244 6.6187 174.653 9.08233 171.87 11.307C170.278 12.5939 170.47 13.3293 171.928 14.506C174.807 16.8593 177.532 19.3781 180.66 22.1175C177.417 22.4301 174.711 22.8897 172.561 20.3709C171.448 19.0839 169.932 18.1095 168.723 16.8961C167.649 15.8113 166.804 15.5723 165.653 16.8225C164.636 17.9257 163.216 18.7346 162.275 19.8929C160.145 22.522 157.362 22.7058 154.292 22.191C154.119 21.4005 154.848 21.1615 155.271 20.7938C157.861 18.4956 160.433 16.1791 163.1 13.9544C164.022 13.1823 164.022 12.6858 163.1 11.8953C160.203 9.41327 157.382 6.85771 154.119 3.98961Z" fill="#BBAFAF" fill-opacity="0.8"/>
<path d="M208.39 0.0367619C208.966 0.110303 209.925 -0.257403 210.271 0.349312C210.751 1.15826 209.714 1.59951 209.254 2.1143C205.588 6.25099 201.52 9.9832 196.626 12.7962C194.918 13.7706 193.153 14.6347 191.272 15.1862C189.89 15.5907 188.144 16.7122 187.108 15.7746C186.033 14.7818 186.877 12.9432 187.261 11.546C188.087 8.45722 190.082 6.15906 192.865 4.44923C197.567 1.58113 202.748 0.20223 208.39 0.0367619Z" fill="#BBAFAF" fill-opacity="0.8"/>
<path d="M210.635 1.67307C212.267 10.1671 208.333 20.4812 199.179 22.6139C195.839 23.3861 192.596 22.9816 189.603 21.235C189.257 21.0328 188.777 20.8673 188.777 20.3893C188.777 19.9664 189.219 19.948 189.564 19.8745C198.488 17.558 204.072 11.4173 208.87 4.3757C209.407 3.56675 209.945 2.72103 210.635 1.67307Z" fill="#BBAFAF" fill-opacity="0.6"/>
<path d="M75.4572 3.76898C78.4317 3.76898 81.3871 3.80575 84.3616 3.75059C85.5898 3.73221 86.1463 4.06314 86.1271 5.35011C86.1271 6.63708 85.5706 6.94963 84.3424 6.94963C80.2548 6.91286 76.1481 6.93125 72.0605 6.93125C69.3546 6.93125 69.3546 6.93125 69.3546 9.6155C69.3546 9.94644 69.393 10.2958 69.3546 10.6267C69.2395 11.7114 69.7768 12.024 70.8515 11.9872C73.2503 11.932 75.6491 12.0056 78.0479 11.9504C79.1802 11.932 79.6983 12.1711 79.6791 13.4029C79.6599 14.5244 79.4872 15.1679 78.0671 15.0943C75.8026 15.0024 73.5382 15.1311 71.2929 15.0392C69.8536 14.984 69.2203 15.3885 69.3354 16.8593C69.4506 18.2014 69.297 19.5619 69.3738 20.9041C69.4506 22.5587 68.2416 22.3381 67.2245 22.3014C66.2074 22.2646 64.8065 22.7978 64.8065 20.9592C64.8256 15.6826 64.8256 10.4245 64.8065 5.14788C64.8065 3.91606 65.4973 3.73221 66.572 3.73221C69.5273 3.78736 72.4827 3.76898 75.4572 3.76898Z" fill="#BBAFAF" fill-opacity="0.8"/>
<path d="M48.5137 3.76897C51.7569 3.76897 55.0001 3.78735 58.2625 3.76897C59.5291 3.75058 60.5078 3.69543 60.5462 5.4788C60.5846 7.39087 59.5099 7.33571 58.1665 7.29894C56.401 7.26217 54.6355 7.37248 52.87 7.26217C51.2579 7.15186 50.6247 7.59311 50.7014 9.24778C50.8358 12.8145 50.6822 16.3997 50.7782 19.9848C50.8166 21.5659 50.6247 22.3933 48.5521 22.4117C46.3835 22.43 46.1725 21.5292 46.2108 19.8745C46.3068 16.3077 46.1916 12.7226 46.2684 9.13747C46.2876 7.77696 45.8846 7.17025 44.3494 7.26217C42.3727 7.37248 40.3961 7.24379 38.4195 7.29894C37.1529 7.33571 36.462 7.11509 36.5004 5.66265C36.5196 4.3573 36.7883 3.69543 38.3619 3.7322C41.7394 3.84251 45.1362 3.76897 48.5137 3.76897Z" fill="#BBAFAF" fill-opacity="0.8"/>
<path d="M32.0866 13.0903C32.0866 15.5907 31.9714 18.0911 32.125 20.5731C32.2209 22.3014 31.2806 22.4117 29.9372 22.3381C28.7474 22.283 27.5576 22.5955 27.596 20.7018C27.7111 15.5723 27.6919 10.4612 27.596 5.33173C27.5576 3.40127 28.8626 3.82414 29.9948 3.76898C31.223 3.69544 32.1825 3.76898 32.1058 5.40527C31.9906 7.96083 32.0866 10.5348 32.0866 13.0903Z" fill="#BBAFAF" fill-opacity="0.8"/>
<path d="M95.3386 13.0352C95.3386 15.6643 95.2618 18.3118 95.3578 20.9408C95.4154 22.4117 94.5134 22.4668 93.4771 22.3197C92.46 22.191 90.8672 23.0184 90.8672 20.996C90.8864 15.7378 90.8864 10.4612 90.848 5.20304C90.8288 3.19904 92.3641 3.91607 93.4004 3.80576C94.571 3.67706 95.4346 3.82414 95.3578 5.35012C95.2427 7.88729 95.3386 10.4612 95.3386 13.0352Z" fill="#BBAFAF" fill-opacity="0.8"/>
</g>
<defs>
<clipPath id="clip0_9_14">
<rect width="211" height="23" fill="white"/>
</clipPath>
</defs>
</svg>
