<svg width="135" height="23" viewBox="0 0 135 23" fill="none" xmlns="http://www.w3.org/2000/svg">
<g clip-path="url(#clip0_9_62)">
<path d="M73.4657 23C72.8696 22.8893 72.2736 22.8088 71.7039 22.5976C70.6332 22.2052 69.7154 21.6065 68.9717 20.7765C68.9506 20.7513 68.9189 20.7312 68.8925 20.7111C68.7976 20.7664 68.8398 20.8519 68.8398 20.9173C68.8345 21.4204 68.8292 21.9234 68.8398 22.4215C68.8451 22.6177 68.787 22.7133 68.5602 22.7082C67.4526 22.7032 66.3449 22.7032 65.2372 22.7082C65.0473 22.7082 64.9576 22.6479 64.9682 22.4617C64.9735 22.3863 64.9682 22.3108 64.9682 22.2353C64.9682 14.9812 64.9682 7.73207 64.9682 0.477914C64.9682 0.392393 64.9735 0.311903 64.9682 0.226383C64.9629 0.0654028 65.042 0.0050354 65.2055 0.0050354C66.3501 0.0050354 67.4895 0.010066 68.6341 0.0050354C68.8292 0.0050354 68.8925 0.0855253 68.8925 0.261597C68.8873 0.789812 68.8925 1.31803 68.8925 1.84121C68.8925 3.99935 68.8925 6.15748 68.8925 8.31562C68.8925 8.41623 68.8925 8.51181 68.8925 8.60237C68.9822 8.64261 69.0086 8.58224 69.0455 8.55206C71.4191 6.23294 74.2305 5.8808 77.2793 7.00766C79.7267 7.91317 81.2722 9.70407 82.0054 12.0836C82.8282 14.7699 82.5117 17.3456 80.8555 19.6949C79.4946 21.6216 77.543 22.6831 75.1219 22.9648C75.0639 22.9698 75.0059 22.9899 74.9426 23.005C74.452 23 73.9615 23 73.4657 23ZM68.787 14.7397C68.787 14.8655 68.7818 14.9913 68.787 15.117C68.7976 15.2428 68.8134 15.3685 68.8345 15.4893C69.0086 16.6363 69.4939 17.6323 70.4116 18.4171C71.4033 19.2572 72.5743 19.5943 73.8877 19.5289C75.3646 19.4534 76.5619 18.8598 77.4322 17.7229C78.3711 16.4853 78.5979 15.0868 78.2973 13.6129C77.5325 9.86505 73.3813 9.01991 70.8864 10.68C69.4147 11.656 68.8187 13.0746 68.787 14.7397Z" fill="#BBAFAF"/>
<path d="M126.033 23C125.437 22.8994 124.836 22.829 124.25 22.673C120.89 21.7675 118.538 19.1315 118.163 15.8263C117.9 13.5122 118.39 11.3742 119.904 9.51794C121.36 7.72704 123.317 6.74606 125.669 6.47944C127.41 6.28828 129.092 6.49453 130.67 7.25416C133.059 8.40617 134.425 10.2776 134.895 12.7677C134.931 12.9639 134.963 13.1601 134.995 13.3613C134.995 14.1159 134.995 14.8655 134.995 15.6201C134.879 15.6251 134.768 15.6301 134.652 15.6301C130.627 15.6301 126.608 15.6301 122.583 15.6301C122.494 15.6301 122.409 15.6301 122.32 15.6301C122.183 15.6301 122.13 15.6855 122.156 15.8213C122.43 17.1494 123.053 18.2662 124.292 19.0007C125.363 19.6345 126.539 19.7854 127.768 19.6094C129.098 19.4182 130.153 18.8346 130.743 17.6323C130.812 17.4965 130.917 17.4613 131.06 17.4613C132.252 17.4613 133.449 17.4663 134.641 17.4613C134.842 17.4613 134.916 17.5166 134.852 17.7128C134.689 18.2259 134.499 18.729 134.214 19.1918C133.011 21.1638 131.192 22.3058 128.881 22.7988C128.481 22.8843 128.069 22.9296 127.663 22.995C127.125 23 126.582 23 126.033 23ZM126.65 12.9539C128.001 12.9539 129.356 12.9488 130.706 12.9589C130.928 12.9589 130.975 12.8935 130.923 12.6973C130.675 11.7515 130.174 10.9718 129.324 10.4134C127.436 9.17082 123.58 9.2815 122.441 12.6822C122.351 12.9438 122.362 12.9589 122.668 12.9589C123.997 12.9539 125.321 12.9539 126.65 12.9539Z" fill="#BBAFAF"/>
<path d="M89.6536 23C89.1156 22.9346 88.5723 22.9245 88.0396 22.8088C86.6734 22.502 85.5077 21.9134 84.7271 20.7614C83.7302 19.2924 83.6405 16.7671 85.1807 15.2528C85.9772 14.4681 86.9847 14.0203 88.066 13.7084C89.142 13.4016 90.2444 13.2758 91.3574 13.1551C92.0483 13.0796 92.7341 12.979 93.3881 12.7526C93.4936 12.7174 93.6044 12.6772 93.7046 12.6319C94.2004 12.4055 94.6013 12.0986 94.6593 11.5302C94.7279 10.8913 94.4483 10.4084 93.9103 10.0512C93.4567 9.74935 92.9345 9.62358 92.4017 9.57831C91.6633 9.51291 90.9248 9.528 90.2128 9.75941C89.258 10.0663 88.6198 10.6549 88.3877 11.6006C88.3402 11.8018 88.24 11.8672 88.029 11.8672C86.9372 11.8572 85.8506 11.8622 84.7587 11.8622C84.4317 11.8622 84.4212 11.8471 84.4739 11.5503C84.9275 9.02997 86.7367 7.22398 89.3635 6.68067C91.2677 6.28325 93.1718 6.28325 95.0285 6.89699C97.1279 7.59121 98.3094 9.02494 98.6364 11.1076C98.705 11.5553 98.7314 12.0031 98.7314 12.4558C98.7261 14.6492 98.7314 16.8375 98.7314 19.0308C98.7314 19.378 98.7314 19.383 99.0953 19.383C99.5278 19.383 99.9551 19.388 100.388 19.383C100.567 19.383 100.641 19.4434 100.641 19.6194C100.636 20.5752 100.641 21.526 100.641 22.4818C100.641 22.6126 100.609 22.7183 100.44 22.7133C99.57 22.6982 98.6997 22.7837 97.8347 22.673C96.4474 22.4969 95.5771 21.7071 95.287 20.4193C95.2764 20.374 95.2553 20.3287 95.2342 20.2533C95.1973 20.2986 95.1709 20.3187 95.1551 20.3438C94.3112 21.8128 92.982 22.5925 91.2835 22.8793C90.851 22.9547 90.4079 22.9396 89.9754 23.0101C89.8646 23 89.7591 23 89.6536 23ZM94.8545 14.7347C94.327 15.3535 93.6518 15.5798 92.9398 15.7358C92.349 15.8666 91.7424 15.9018 91.1411 15.9823C90.3657 16.0879 89.5956 16.2288 88.8994 16.586C88.4246 16.8274 88.0554 17.1645 87.9235 17.6776C87.7073 18.5228 88.1187 19.2673 89.0049 19.6144C89.8646 19.9514 90.756 19.9716 91.6422 19.7653C93.2826 19.378 94.4219 18.4624 94.7754 16.8325C94.923 16.1684 94.8597 15.4843 94.8545 14.7347Z" fill="#BBAFAF"/>
<path d="M26.4894 23C25.9461 22.9145 25.3976 22.8541 24.8596 22.7183C21.5523 21.9033 19.126 19.3528 18.6249 16.1282C18.3031 14.0656 18.6302 12.1037 19.7853 10.3128C21.1356 8.22004 23.1189 6.96238 25.6508 6.54987C28.2934 6.12227 30.7461 6.61527 32.8823 8.20998C34.6388 9.51794 35.641 11.2636 35.9786 13.3462C36.3161 15.449 35.9364 17.4311 34.7232 19.2321C33.3834 21.2242 31.4423 22.3963 29.0107 22.8491C28.6837 22.9095 28.3514 22.9447 28.0244 22.995C27.5074 23 26.9958 23 26.4894 23ZM27.8978 19.5339C29.0424 19.5138 30.4191 18.8346 31.3421 17.4261C31.9856 16.4451 32.1861 15.3535 32.0806 14.2014C31.8643 11.7566 29.9127 9.89524 27.3492 9.88517C25.7773 9.88014 24.4798 10.4084 23.5251 11.6006C22.602 12.7526 22.3594 14.0807 22.5387 15.4943C22.8394 17.8788 24.7963 19.5389 27.8978 19.5339Z" fill="#BBAFAF"/>
<path d="M108.426 23C107.82 22.9145 107.208 22.8592 106.612 22.7133C105.467 22.4366 104.423 21.9838 103.547 21.2192C102.513 20.3187 101.949 19.1818 101.754 17.8688C101.733 17.7179 101.801 17.6726 101.938 17.6726C103.088 17.6726 104.238 17.6726 105.393 17.6726C105.525 17.6726 105.604 17.7179 105.636 17.8487C105.842 18.7793 106.501 19.3327 107.398 19.6194C108.701 20.037 110.019 20.0269 111.338 19.6496C111.617 19.5691 111.86 19.4182 112.092 19.2472C112.825 18.6888 112.825 17.3355 111.77 16.8375C111.264 16.6011 110.721 16.5155 110.172 16.43C108.88 16.2338 107.572 16.1332 106.301 15.8263C105.409 15.6151 104.565 15.2881 103.827 14.7448C102.803 13.9851 102.313 12.9639 102.202 11.7616C102.086 10.4738 102.45 9.32678 103.384 8.36593C104.017 7.71195 104.792 7.2441 105.662 6.96239C107.925 6.22289 110.204 6.16755 112.446 6.99257C114.497 7.74717 115.679 9.22114 116.053 11.2837C116.09 11.4899 116.016 11.5553 115.811 11.5553C114.719 11.5503 113.632 11.5553 112.54 11.5553C112.414 11.5553 112.293 11.5453 112.25 11.3944C111.913 10.2776 111.037 9.77954 109.919 9.58837C108.97 9.42739 108.031 9.47267 107.113 9.79463C106.781 9.91033 106.485 10.0914 106.264 10.3681C105.81 10.9366 105.915 11.7415 106.512 12.1791C107.013 12.5464 107.603 12.6621 108.205 12.7526C109.36 12.9237 110.515 13.0746 111.665 13.2607C112.419 13.3815 113.147 13.6028 113.838 13.9348C115.394 14.6794 116.285 15.8666 116.417 17.5217C116.549 19.1616 116.001 20.5551 114.608 21.5914C113.733 22.2454 112.715 22.6076 111.633 22.8088C111.18 22.8944 110.715 22.9396 110.257 23.005C109.655 23 109.038 23 108.426 23Z" fill="#BBAFAF"/>
<path d="M7.92785 23C7.39511 22.9094 6.85182 22.844 6.32435 22.7132C3.04878 21.9083 0.611879 19.3478 0.11606 16.1533C-0.216245 14.0254 0.126609 12.0131 1.35561 10.187C2.7323 8.12948 4.72613 6.92716 7.24214 6.53477C9.27289 6.21784 11.2403 6.46434 13.0654 7.42016C15.2386 8.55205 16.5414 10.3128 17.1005 12.5916C17.1533 12.7979 17.0952 12.8734 16.8579 12.8734C15.6711 12.8633 14.4843 12.8633 13.2975 12.8734C13.0654 12.8734 12.9599 12.7929 12.8755 12.5916C12.2267 11.0875 11.0716 10.1518 9.36784 9.92541C6.7938 9.58333 4.59426 11.0925 4.09844 13.5324C3.78196 15.0818 3.9824 16.5558 5.01623 17.8436C5.90238 18.9503 7.105 19.4936 8.56081 19.5339C10.2593 19.5842 11.5674 18.9202 12.4904 17.5669C12.6645 17.3154 12.7964 17.0387 12.9019 16.752C12.9599 16.5859 13.0548 16.5155 13.2447 16.5155C14.4421 16.5206 15.6342 16.5206 16.8315 16.5155C17.0741 16.5155 17.1111 16.6061 17.0583 16.8073C16.5414 18.9453 15.344 20.6356 13.3766 21.7977C12.2636 22.4567 11.0399 22.829 9.73707 22.9547C9.67904 22.9597 9.62102 22.9799 9.55773 22.995C9.01971 23 8.47642 23 7.92785 23Z" fill="#BBAFAF"/>
<path d="M50.6 8.63255C50.8848 8.30053 51.1696 7.97857 51.5125 7.70189C52.5885 6.85675 53.8386 6.48448 55.21 6.42411C56.2913 6.37381 57.3515 6.47442 58.3643 6.87184C59.9572 7.49563 60.9858 8.62249 61.5818 10.1417C61.9563 11.0925 62.1198 12.0836 62.1251 13.0897C62.1409 16.1835 62.1304 19.2773 62.1304 22.3762C62.1304 22.6881 62.1146 22.7032 61.7875 22.7032C60.7168 22.7032 59.646 22.7032 58.57 22.7032C58.1744 22.7032 58.1691 22.7032 58.1691 22.3309C58.1691 19.378 58.1691 16.425 58.1691 13.472C58.1691 12.8331 58.0531 12.2194 57.7419 11.6509C57.1564 10.5643 56.2122 9.98579 54.9305 9.89524C53.9599 9.82481 53.0527 9.98579 52.2562 10.5392C51.1749 11.2887 50.6422 12.3401 50.5894 13.5927C50.5419 14.785 50.5736 15.9823 50.5736 17.1796C50.5736 18.9051 50.5736 20.6256 50.5736 22.3511C50.5736 22.6881 50.5525 22.7032 50.1991 22.7032C49.1072 22.7032 48.0206 22.6982 46.9288 22.7082C46.6862 22.7082 46.6123 22.6328 46.6123 22.4014C46.6176 17.2752 46.6176 12.149 46.6123 7.01772C46.6123 6.78129 46.702 6.71589 46.9341 6.72092C48.0259 6.73098 49.1125 6.73098 50.2044 6.72092C50.4628 6.71589 50.5419 6.80644 50.5314 7.04288C50.5156 7.56606 50.5261 8.08925 50.5261 8.61746C50.5578 8.62249 50.5789 8.62752 50.6 8.63255Z" fill="#BBAFAF"/>
<path d="M43.4792 14.7146C43.4792 17.255 43.4792 19.8005 43.4792 22.341C43.4792 22.7032 43.4792 22.7032 43.0994 22.7032C42.0392 22.7032 40.9737 22.7032 39.9135 22.7032C39.5653 22.7032 39.5601 22.6982 39.5601 22.3662C39.5601 18.392 39.5601 14.4228 39.5601 10.4486C39.5601 10.0562 39.5601 10.0562 39.1381 10.0562C38.5843 10.0562 38.0304 10.0562 37.4766 10.0562C37.1337 10.0562 37.1284 10.0512 37.1284 9.71414C37.1284 8.83378 37.1284 7.95845 37.1284 7.0781C37.1284 6.72595 37.1284 6.72595 37.4924 6.72595C39.3702 6.72595 41.2532 6.72595 43.131 6.72595C43.4792 6.72595 43.4844 6.73098 43.4844 7.063C43.4792 9.61353 43.4792 12.1641 43.4792 14.7146Z" fill="#BBAFAF"/>
<path d="M41.5117 0.155945C42.9464 0.155945 44.0383 1.17213 44.0436 2.51531C44.0488 3.84842 42.9464 4.88473 41.517 4.88473C40.0928 4.88473 38.9851 3.85345 38.9851 2.52034C38.9851 1.18219 40.0823 0.155945 41.5117 0.155945Z" fill="#BBAFAF"/>
</g>
<defs>
<clipPath id="clip0_9_62">
<rect width="135" height="23" fill="white"/>
</clipPath>
</defs>
</svg>
