<svg width="15" height="18" viewBox="0 0 15 18" fill="none" xmlns="http://www.w3.org/2000/svg">
<path d="M8.02696 0.0975238V0.106391C8.03582 0.150726 8.03582 0.203928 8.03582 0.25713V6.65023C8.02696 6.6857 8.00035 6.69457 7.97375 6.7123C7.78755 6.80097 7.61021 6.88078 7.424 6.96058C7.16686 7.07585 6.90085 7.19999 6.6437 7.31526L5.71267 7.74087C5.45553 7.85615 5.19838 7.97142 4.95011 8.08669C4.64863 8.22856 4.33828 8.36156 4.03681 8.50344C3.77966 8.61871 3.52252 8.74284 3.25651 8.85812C3.0437 8.95565 2.8309 9.04432 2.62695 9.14186C2.60922 9.15073 2.59149 9.15959 2.57375 9.15959C2.56489 9.15959 2.56489 9.15959 2.55602 9.15073L2.79543 8.75171C3.25651 7.98915 3.70873 7.23546 4.16981 6.47289C4.6575 5.65713 5.15405 4.84137 5.64173 4.0256C6.09395 3.27191 6.55503 2.51821 7.00725 1.76452C7.33533 1.21477 7.67228 0.665012 8.00035 0.115258C8.00922 0.0975238 8.01809 0.0886568 8.01809 0.0709229H8.02696C8.01809 0.0797898 8.02696 0.0886568 8.02696 0.0975238Z" fill="#8A92B2"/>
<path d="M13.4709 9.15077L13.4798 9.15963L12.1763 9.93106L8.07979 12.3518C8.06205 12.3606 8.04432 12.3695 8.03545 12.3784C8.00885 12.3784 8.00885 12.3518 8.00885 12.3429V12.2631V6.78328C8.00885 6.75668 8.00885 6.72121 8.01772 6.69461C8.02659 6.65914 8.05319 6.66801 8.07979 6.67688C8.19506 6.73008 8.3192 6.78328 8.43447 6.83648C8.78028 6.99609 9.12609 7.15569 9.47191 7.30643C9.77338 7.43944 10.066 7.58131 10.3675 7.71431C10.669 7.84732 10.9704 7.98919 11.2719 8.1222C11.529 8.23747 11.7951 8.36161 12.0522 8.47688C12.3093 8.59215 12.5754 8.71628 12.8325 8.83156C13.0364 8.92023 13.2404 9.01776 13.4443 9.10643C13.4443 9.13303 13.4532 9.1419 13.4709 9.15077Z" fill="#454A75"/>
<path d="M8.02659 17.8847C8.02659 17.8935 8.01772 17.9024 8.01772 17.9113H8.00885C8.00885 17.8935 7.99112 17.8847 7.98225 17.8669C7.4325 17.0955 6.88274 16.3152 6.33299 15.5438C5.77437 14.7546 5.20688 13.9566 4.64826 13.1674C4.10737 12.4049 3.55762 11.6334 3.01673 10.8709C2.87486 10.6669 2.73299 10.4719 2.59112 10.2679C2.58225 10.2502 2.57338 10.2413 2.55565 10.2147C2.58225 10.2147 2.59999 10.2325 2.60885 10.2413C3.38028 10.6935 4.14284 11.1458 4.91427 11.598C5.80097 12.1211 6.6788 12.6443 7.5655 13.1674L8.01772 13.4334C8.03545 13.4512 8.03545 13.4689 8.03545 13.4866V17.7605C8.03545 17.8049 8.03545 17.8492 8.02659 17.8847Z" fill="#8A92B2"/>
<path d="M2.54678 9.16846V9.15959C2.83053 9.03546 3.1054 8.90245 3.38915 8.77831C3.75269 8.60984 4.11624 8.45024 4.47979 8.28176C4.75467 8.15762 5.03841 8.02462 5.31329 7.90048C5.72117 7.71427 6.12018 7.53693 6.52806 7.35073C6.80294 7.22659 7.07782 7.10245 7.36156 6.96945C7.55664 6.88078 7.76058 6.79211 7.95565 6.70344C7.97338 6.69457 7.99999 6.6857 8.00885 6.66797C8.01772 6.66797 8.01772 6.67684 8.00885 6.6857V12.3162C8.00885 12.3428 7.99999 12.3694 8.01772 12.3872C7.99999 12.4138 7.98225 12.3872 7.97338 12.3783C7.89358 12.334 7.81378 12.2896 7.73398 12.2364C6.02265 11.2256 4.30245 10.2059 2.59112 9.19506C2.58225 9.1862 2.56452 9.17733 2.54678 9.16846Z" fill="#62688F"/>
<path d="M13.4532 10.2147H13.4621C13.4621 10.2325 13.4443 10.2502 13.4355 10.2679C11.8039 12.5645 10.1724 14.8699 8.54087 17.1664C8.3724 17.4059 8.19506 17.6453 8.02659 17.8847C8.01772 17.8758 8.01772 17.8669 8.01772 17.8581V17.8049V13.5044V13.4246C8.39013 13.2029 8.75368 12.9901 9.12609 12.7684C10.5625 11.9172 11.999 11.0748 13.4266 10.2236C13.4355 10.2325 13.4443 10.2236 13.4532 10.2147Z" fill="#62688F"/>
<path d="M8.01772 6.68576V6.66802V6.61482V0.177381C8.01772 0.15078 8.00885 0.133046 8.02659 0.106445C9.82659 3.09462 11.6266 6.07393 13.4177 9.06211C13.4355 9.08871 13.4621 9.12418 13.4709 9.15965C13.3468 9.11531 13.2315 9.05324 13.1162 9.00004C12.9744 8.93797 12.8236 8.86704 12.6818 8.80497C12.5931 8.76063 12.4956 8.72516 12.4069 8.68083C12.2561 8.60989 12.1054 8.54782 11.9547 8.47689C11.866 8.44142 11.7773 8.39709 11.6887 8.35275L11.1034 8.08674C11.0059 8.04241 10.9084 7.99807 10.802 7.95374L10.3763 7.76753C10.2877 7.73206 10.199 7.68773 10.1103 7.64339L9.52511 7.37738C9.42757 7.33305 9.33003 7.28871 9.22363 7.24438L8.79801 7.05817C8.70048 7.01383 8.61181 6.9695 8.51427 6.92516C8.3458 6.84536 8.17732 6.76556 7.99998 6.69462C8.02659 6.68576 8.01772 6.68576 8.01772 6.68576Z" fill="#62688F"/>
</svg>
