<svg width="20" height="20" viewBox="0 0 20 20" fill="none" xmlns="http://www.w3.org/2000/svg">
<path d="M10.03 0.108368V0.118221C10.0398 0.167482 10.0398 0.226595 10.0398 0.285708V7.38916C10.03 7.42857 10.0004 7.43842 9.97085 7.45812C9.76396 7.55664 9.56691 7.64531 9.36002 7.73398C9.0743 7.86206 8.77874 7.99999 8.49302 8.12807L7.45854 8.60098C7.17282 8.72906 6.88711 8.85714 6.61125 8.98522C6.27627 9.14285 5.93144 9.29063 5.59647 9.44827C5.31075 9.57635 5.02504 9.71428 4.72947 9.84236C4.49302 9.95073 4.25657 10.0493 4.02997 10.1576C4.01026 10.1675 3.99056 10.1773 3.97085 10.1773C3.961 10.1773 3.961 10.1773 3.95115 10.1675L4.21716 9.72413C4.72947 8.87684 5.23194 8.0394 5.74425 7.19211C6.28612 6.28571 6.83785 5.3793 7.37972 4.4729C7.88218 3.63546 8.3945 2.79802 8.89696 1.96058C9.26149 1.34975 9.63588 0.73891 10.0004 0.128073C10.0103 0.108368 10.0201 0.0985161 10.0201 0.0788116H10.03C10.0201 0.0886639 10.03 0.0985161 10.03 0.108368Z" fill="#D492FF"/>
<path d="M16.0788 10.1675L16.0887 10.1773L14.6404 11.0345L10.0887 13.7241C10.069 13.734 10.0493 13.7438 10.0394 13.7537C10.0099 13.7537 10.0099 13.7241 10.0099 13.7143V13.6256V7.53694C10.0099 7.50738 10.0099 7.46797 10.0197 7.43841C10.0296 7.399 10.0591 7.40886 10.0887 7.41871C10.2168 7.47782 10.3547 7.53694 10.4828 7.59605C10.867 7.77339 11.2512 7.95073 11.6355 8.11822C11.9704 8.266 12.2956 8.42363 12.6305 8.57142C12.9655 8.7192 13.3005 8.87684 13.6355 9.02462C13.9212 9.1527 14.2168 9.29063 14.5025 9.41871C14.7882 9.54679 15.0837 9.68472 15.3695 9.8128C15.5961 9.91132 15.8227 10.0197 16.0493 10.1182C16.0493 10.1478 16.0591 10.1576 16.0788 10.1675Z" fill="#942BD9"/>
<path d="M10.0296 19.8719C10.0296 19.8818 10.0197 19.8916 10.0197 19.9015H10.0099C10.0099 19.8818 9.99015 19.8719 9.98029 19.8522C9.36946 18.9951 8.75862 18.1281 8.14778 17.2709C7.52709 16.3941 6.89655 15.5074 6.27586 14.6305C5.67488 13.7832 5.06404 12.9261 4.46305 12.0788C4.30542 11.8522 4.14778 11.6355 3.99015 11.4089C3.98029 11.3892 3.97044 11.3793 3.95074 11.3497C3.98029 11.3497 4 11.3695 4.00985 11.3793C4.86699 11.8818 5.71428 12.3842 6.57143 12.8867C7.55665 13.468 8.53202 14.0493 9.51724 14.6305L10.0197 14.9261C10.0394 14.9458 10.0394 14.9655 10.0394 14.9852V19.734C10.0394 19.7832 10.0394 19.8325 10.0296 19.8719Z" fill="#D492FF"/>
<path d="M3.94089 10.1872V10.1773C4.25616 10.0394 4.56158 9.89162 4.87685 9.75369C5.28079 9.56649 5.68473 9.38915 6.08867 9.20196C6.39409 9.06403 6.70936 8.91625 7.01478 8.77832C7.46798 8.57142 7.91133 8.37438 8.36453 8.16748C8.66995 8.02955 8.97537 7.89162 9.29064 7.74383C9.50739 7.64531 9.73399 7.54679 9.95074 7.44827C9.97044 7.43842 10 7.42856 10.0099 7.40886C10.0197 7.40886 10.0197 7.41871 10.0099 7.42856V13.6847C10.0099 13.7143 10 13.7438 10.0197 13.7635C10 13.7931 9.9803 13.7635 9.97044 13.7537C9.88177 13.7044 9.7931 13.6552 9.70443 13.5961C7.80296 12.4729 5.89163 11.3399 3.99015 10.2167C3.9803 10.2069 3.96059 10.197 3.94089 10.1872Z" fill="#B33FFF"/>
<path d="M16.0591 11.3497H16.069C16.069 11.3695 16.0493 11.3892 16.0394 11.4089C14.2266 13.9606 12.4138 16.5222 10.601 19.0739C10.4138 19.3399 10.2167 19.6059 10.0296 19.8719C10.0197 19.8621 10.0197 19.8522 10.0197 19.8424V19.7832V15.0049V14.9163C10.4335 14.6699 10.8374 14.4335 11.2512 14.1872C12.8473 13.2414 14.4433 12.3054 16.0296 11.3596C16.0394 11.3695 16.0493 11.3596 16.0591 11.3497Z" fill="#B33FFF"/>
<path d="M10.0197 7.42857V7.40887V7.34975V0.197043C10.0197 0.167486 10.0099 0.147782 10.0296 0.118225C12.0296 3.43842 14.0296 6.74877 16.0197 10.069C16.0394 10.0985 16.069 10.1379 16.0788 10.1773C15.9409 10.1281 15.8128 10.0591 15.6847 10C15.5271 9.93103 15.3596 9.85222 15.202 9.78325C15.1034 9.73399 14.9951 9.69458 14.8966 9.64532C14.7291 9.5665 14.5616 9.49754 14.3941 9.41872C14.2956 9.37931 14.197 9.33005 14.0985 9.28079L13.4483 8.98522C13.3399 8.93596 13.2315 8.8867 13.1133 8.83744L12.6404 8.63054C12.5419 8.59113 12.4434 8.54187 12.3448 8.49261L11.6946 8.19704C11.5862 8.14778 11.4778 8.09852 11.3596 8.04926L10.8867 7.84236C10.7783 7.7931 10.6798 7.74384 10.5714 7.69458C10.3842 7.60591 10.197 7.51724 10 7.43842C10.0296 7.42857 10.0197 7.42857 10.0197 7.42857Z" fill="#B33FFF"/>
</svg>
